<svg width="771" height="1422" viewBox="0 0 771 1422" fill="none" xmlns="http://www.w3.org/2000/svg">
<path opacity="0.04" d="M421.611 638.265L448 601.231L309.123 217.239L288.705 160.728L241.749 30.7385L234.967 12H211.232L203.197 34.1321L157.863 159.547L138.918 212.001L1 593.558L25.7678 628.306L157.568 263.716L176.586 211.189L221.846 85.7737L268.876 215.763L223.542 341.105L204.524 393.632L88.1296 715.728L115.183 753.795L224.942 450.142L336.25 758L361.46 722.662L243.96 397.615L289.294 272.2L421.611 638.265Z" fill="#BA9966"/>
<path opacity="0.5" d="M769.5 1421.5L358 434M289 269L195.5 1H188L185.575 7.5L1 513" stroke="#D6B480" stroke-width="2"/>
<path opacity="0.5" d="M245 147L70 623" stroke="#D6B480" stroke-width="2"/>
<path opacity="0.5" d="M191 293.5L568 1243.5" stroke="#D6B480" stroke-width="2"/>
</svg>
