<svg width="24" height="23" viewBox="0 0 24 23" fill="none" xmlns="http://www.w3.org/2000/svg">
<path fill-rule="evenodd" clip-rule="evenodd" d="M6.875 8.10864C7.15114 8.10864 7.375 8.3325 7.375 8.60864V21.9999C7.375 22.2761 7.15114 22.4999 6.875 22.4999C6.59886 22.4999 6.375 22.2761 6.375 21.9999V8.60864C6.375 8.3325 6.59886 8.10864 6.875 8.10864Z" fill="#BA9966"/>
<path fill-rule="evenodd" clip-rule="evenodd" d="M17.375 8.26099C17.6511 8.26099 17.875 8.48484 17.875 8.76099V13.0219C17.875 13.298 17.6511 13.5219 17.375 13.5219C17.0989 13.5219 16.875 13.298 16.875 13.0219V8.76099C16.875 8.48484 17.0989 8.26099 17.375 8.26099Z" fill="#BA9966"/>
<path fill-rule="evenodd" clip-rule="evenodd" d="M12.0487 1.5C8.37476 1.5 5.39648 4.47828 5.39648 8.15217V12.8696C5.39648 13.1457 5.17263 13.3696 4.89648 13.3696C4.62034 13.3696 4.39648 13.1457 4.39648 12.8696V8.15217C4.39648 3.92599 7.82248 0.5 12.0487 0.5C16.2748 0.5 19.7008 3.92599 19.7008 8.15217V12.8696C19.7008 13.1457 19.477 13.3696 19.2008 13.3696C18.9247 13.3696 18.7008 13.1457 18.7008 12.8696V8.15217C18.7008 4.47828 15.7226 1.5 12.0487 1.5Z" fill="#BA9966"/>
<path fill-rule="evenodd" clip-rule="evenodd" d="M0.896484 13.0217C0.896484 12.7456 1.12034 12.5217 1.39648 12.5217H23.0052C23.2813 12.5217 23.5052 12.7456 23.5052 13.0217C23.5052 13.2979 23.2813 13.5217 23.0052 13.5217H1.39648C1.12034 13.5217 0.896484 13.2979 0.896484 13.0217Z" fill="#BA9966"/>
<path fill-rule="evenodd" clip-rule="evenodd" d="M2.76562 12.6738C3.04177 12.6738 3.26562 12.8977 3.26562 13.1738V21.4999H21.1352V13.1738C21.1352 12.8977 21.359 12.6738 21.6352 12.6738C21.9113 12.6738 22.1352 12.8977 22.1352 13.1738V22.4999H2.26562V13.1738C2.26562 12.8977 2.48948 12.6738 2.76562 12.6738Z" fill="#BA9966"/>
<path fill-rule="evenodd" clip-rule="evenodd" d="M17.3965 12.5217C17.6726 12.5217 17.8965 12.7456 17.8965 13.0217V22C17.8965 22.2761 17.6726 22.5 17.3965 22.5C17.1203 22.5 16.8965 22.2761 16.8965 22V13.0217C16.8965 12.7456 17.1203 12.5217 17.3965 12.5217Z" fill="#BA9966"/>
<path fill-rule="evenodd" clip-rule="evenodd" d="M12.3965 12.5217C12.6726 12.5217 12.8965 12.7456 12.8965 13.0217V22C12.8965 22.2761 12.6726 22.5 12.3965 22.5C12.1203 22.5 11.8965 22.2761 11.8965 22V13.0217C11.8965 12.7456 12.1203 12.5217 12.3965 12.5217Z" fill="#BA9966"/>
<path fill-rule="evenodd" clip-rule="evenodd" d="M12.2008 0.5C12.477 0.5 12.7008 0.723858 12.7008 1C12.7008 4.3695 11.4202 6.48867 9.76256 7.7374C8.12973 8.96747 6.18289 9.3149 4.87568 9.26044C4.59977 9.24894 4.38543 9.01596 4.39693 8.74005C4.40842 8.46415 4.6414 8.24981 4.91731 8.2613C6.04487 8.30828 7.75021 8.00137 9.16086 6.93868C10.5467 5.89467 11.7008 4.08268 11.7008 1C11.7008 0.723858 11.9247 0.5 12.2008 0.5Z" fill="#BA9966"/>
<path fill-rule="evenodd" clip-rule="evenodd" d="M12.2012 0.5C11.925 0.5 11.7012 0.723858 11.7012 1C11.7012 4.41894 12.9219 6.57354 14.5136 7.84842C16.0837 9.10606 17.9594 9.46347 19.2233 9.40748C19.4992 9.39526 19.7129 9.16171 19.7007 8.88584C19.6885 8.60997 19.4549 8.39624 19.179 8.40846C18.1096 8.45584 16.4853 8.1465 15.1387 7.06793C13.8137 6.00659 12.7012 4.15553 12.7012 1C12.7012 0.723858 12.4773 0.5 12.2012 0.5Z" fill="#BA9966"/>
</svg>
