<svg width="23" height="23" viewBox="0 0 23 23" fill="none" xmlns="http://www.w3.org/2000/svg">
<path opacity="0.5" fill-rule="evenodd" clip-rule="evenodd" d="M8.49609 0.5V3.425H7.49609V0.5H8.49609ZM8.49609 6.275V11.125H7.49609V6.275H8.49609ZM8.49609 13.975V15.9H11.9961V16.9H7.49609V13.975H8.49609ZM17.9961 15.9H22.4961V16.9H17.9961V15.9Z" fill="#BA9966"/>
<path opacity="0.5" fill-rule="evenodd" clip-rule="evenodd" d="M7.30278 17.3681L5.27951 19.2075L4.60684 18.4675L6.63011 16.6282L7.30278 17.3681ZM3.45278 20.8681L1.42951 22.7075L0.756836 21.9675L2.78011 20.1282L3.45278 20.8681Z" fill="#BA9966"/>
<path fill-rule="evenodd" clip-rule="evenodd" d="M0.962891 7.50098H16.4296V22.501H0.962891V7.50098ZM1.96289 8.50098V21.501H15.4296V8.50098H1.96289Z" fill="#BA9966"/>
<path fill-rule="evenodd" clip-rule="evenodd" d="M7.77924 0.5H22.4965V16.6189L16.269 22.3674L15.5907 21.6326L21.4965 16.1811V2.34036L16.3077 8.32747L15.552 7.67253L20.9015 1.5H8.21379L1.82871 8.34116L1.09766 7.65884L7.77924 0.5Z" fill="#BA9966"/>
</svg>
