<svg width="114" height="104" viewBox="0 0 114 104" fill="none" xmlns="http://www.w3.org/2000/svg">
<g clip-path="url(#clip0)">
<path d="M2.60875 104C2.53829 104 2.46783 103.93 2.46783 103.859C2.25644 102.239 2.04506 100.477 1.83368 98.645C0.494927 88.1464 -1.26659 73.7019 1.48138 63.3442C3.10197 57.4255 5.28625 53.3388 11.5573 51.0841C14.728 49.8862 18.0396 50.5908 21.2808 51.225C24.6629 51.8591 27.8337 52.4933 30.793 51.225C35.373 49.2521 36.5003 45.7995 34.7388 39.1762C33.4001 34.0326 32.0613 32.412 31.1453 31.9187C30.793 31.7074 30.3703 31.7074 30.018 31.8483C29.5952 31.9892 29.3134 32.1301 29.0315 32.3415C28.0451 32.9052 27.6223 32.9757 25.438 31.496C23.1128 29.8754 20.6467 26.5637 20.999 24.4499C21.1399 23.6748 21.6331 23.1112 22.4082 22.8293C23.9583 22.3361 25.1562 22.9702 25.8608 23.5339C26.5654 24.1681 27.1291 25.0136 27.4109 25.7887C27.7632 25.9296 28.186 26.2114 28.6087 26.5637C29.5952 27.4093 30.5112 28.6071 31.3567 29.8049C32.8364 31.8483 34.3865 33.8916 36.5708 34.3144C39.8825 34.9486 42.56 34.8076 47.4218 32.412C49.8174 31.2141 51.5789 30.7209 53.1291 30.2277C54.5383 29.8049 55.6657 29.4526 56.934 28.6776C57.1453 28.5366 57.3567 28.4662 57.4976 28.3253C59.6115 27.1274 60.2456 26.7751 59.4705 21.4906C59.1887 19.3767 58.7659 16.5583 58.1318 13.8103C57.6386 11.6261 57.2863 10.0055 55.3838 8.59625C54.4678 7.96211 53.8337 7.04612 53.3405 5.84829C53.0586 5.84829 52.8472 5.84829 52.5654 5.84829C52.4949 5.98921 52.4949 6.05967 52.4245 6.20059C51.7903 7.46888 47.7036 7.82119 47.1399 7.6098C46.9285 7.53934 46.7876 7.32796 46.8581 7.04612C46.9285 6.48243 47.6331 5.84828 49.1128 5.6369C49.9583 5.49598 50.8039 5.49598 51.6494 5.56644C51.7903 5.56644 52.0017 5.56644 52.1426 5.56644C52.2131 5.56644 52.2835 5.56644 52.354 5.56644C52.4949 4.86184 52.354 4.08677 52.0017 3.45262C50.8039 3.38216 49.4651 3.87539 48.4787 4.15723C47.9854 4.36861 46.5058 4.9323 46.1535 5.91875C46.0125 6.27105 46.083 6.69381 46.2944 7.11658C46.4353 7.39842 46.7172 7.68026 47.0695 7.96211C47.5627 8.38487 48.1264 8.73717 48.69 9.08948C49.0424 9.30086 49.3947 9.5827 49.747 9.79408L49.8879 9.86455C50.3811 10.2168 50.9448 10.5692 51.2971 11.1328C51.6494 11.6965 51.9312 12.7534 51.3676 13.3171C51.2266 13.458 51.0153 13.599 50.8039 13.5285C50.6629 13.5285 50.5925 13.3876 50.522 13.2467C50.4516 13.1057 50.522 12.9648 50.5925 12.8239C50.5925 12.7534 50.6629 12.683 50.6629 12.6125C50.6629 12.6125 50.663 12.6125 50.5925 12.5421C50.4516 12.4716 50.3106 12.5421 50.2402 12.5421C50.0993 12.683 50.0288 12.9648 49.9583 13.2467C49.8879 13.3876 49.8879 13.599 49.8174 13.7399C49.747 14.0217 49.5356 14.1626 49.3947 14.1626C49.0424 14.2331 48.6196 13.9513 48.2673 13.6694C48.0559 13.5285 47.7741 13.3171 47.6331 13.3171C47.0695 13.2467 46.7171 13.7399 46.6467 13.9513C46.4353 14.374 46.3648 14.5854 46.4353 14.6559C46.5058 14.6559 46.6467 14.4445 46.7876 14.374C46.8581 14.2331 46.999 14.1626 47.0695 14.0922C47.4922 13.8103 47.7036 14.0217 47.7741 14.1626C48.0559 14.515 47.9854 15.4309 47.7036 15.7832C47.1399 16.3469 46.1535 16.4879 45.4489 16.2765C45.0261 16.1355 44.6738 15.8537 44.5329 15.4309C44.3215 14.7968 44.3919 13.9513 44.6738 13.3876C44.7442 13.3171 44.8147 13.3171 44.8852 13.3171C44.9556 13.3876 44.9556 13.458 44.9556 13.5285C44.6738 14.0217 44.6033 14.7263 44.8147 15.29C44.8852 15.5719 45.0966 15.8537 45.5193 15.9946C46.1535 16.1355 46.999 16.0651 47.4218 15.5719C47.6331 15.3605 47.7036 14.5854 47.4922 14.374C47.4922 14.3036 47.4218 14.2331 47.1399 14.374C47.0695 14.374 46.999 14.515 46.9285 14.5854C46.7171 14.7968 46.5762 15.0082 46.3648 15.0082C46.2944 15.0082 46.1535 14.9377 46.1535 14.8673C46.0125 14.6559 46.2239 14.2331 46.3648 13.8808C46.5762 13.458 47.0695 13.0353 47.6331 13.1057C47.8445 13.1762 48.1264 13.3171 48.4082 13.5285C48.69 13.7399 49.0424 14.0217 49.2537 13.9513C49.3242 13.9513 49.4651 13.8103 49.5356 13.6694C49.606 13.5285 49.606 13.3876 49.6765 13.2467C49.747 12.8944 49.8174 12.5421 50.0993 12.3307C50.2402 12.2602 50.4516 12.1897 50.6629 12.2602C50.8039 12.3307 50.9448 12.3307 50.9448 12.4716C51.0153 12.6125 50.9448 12.7534 50.8743 12.8944C50.8743 12.9648 50.8039 13.0353 50.8039 13.1057C50.8039 13.1762 50.8039 13.1762 50.8743 13.1762C50.9448 13.1762 51.0857 13.1057 51.1562 13.0353C51.5085 12.6125 51.3676 11.6965 51.0153 11.2033C50.6629 10.7101 50.1697 10.3578 49.6765 10.0055L49.5356 9.93501C49.1833 9.72362 48.831 9.44178 48.4787 9.2304C47.915 8.8781 47.3513 8.52579 46.8581 8.10303C46.5058 7.82119 46.2239 7.53934 46.0125 7.18704C45.7307 6.69381 45.6602 6.20059 45.8716 5.70736C46.2944 4.65045 47.7036 4.01631 48.5491 3.80492C49.4651 3.52308 50.8039 3.10032 51.9312 3.10032C51.9312 3.10032 51.9312 3.10032 52.0017 3.10032C51.8608 2.88894 51.7199 2.67755 51.5789 2.53663C50.4516 1.12742 48.9719 1.83202 47.4218 2.67755C46.6467 3.17078 45.8716 3.664 45.167 4.15723C45.167 4.22769 45.0966 4.22769 45.0261 4.15723C44.8852 4.08677 44.6738 3.3117 44.7442 2.60709C44.8147 1.76156 45.167 1.19788 45.8716 0.916035C47.1399 0.35235 49.606 -0.493179 51.2971 0.42281C52.2835 0.916035 52.8472 1.90249 53.1291 3.3117C53.5518 3.45262 53.9041 3.664 54.2564 4.01631C54.4678 4.29815 54.6792 4.72091 54.6087 5.07322C54.5383 5.49598 54.186 5.70736 53.8337 5.77782C54.2564 6.9052 54.8906 7.75072 55.7361 8.38487C57.709 9.86454 58.1318 11.4851 58.625 13.7399C59.2592 16.4879 59.6819 19.3063 59.9638 21.4201C60.7388 26.916 60.0342 27.3388 57.8499 28.5366C57.6386 28.6071 57.4976 28.748 57.2863 28.8889C56.018 29.664 54.8201 30.0163 53.4109 30.4391C51.8608 30.9323 50.1697 31.4255 47.7741 32.6234C42.8418 35.019 40.0938 35.1599 36.7822 34.5258C34.457 34.103 32.9068 31.9892 31.3567 29.8754C30.4407 28.6776 29.5952 27.5502 28.6792 26.7047C28.3269 26.4228 28.0451 26.2114 27.7632 26.0705C27.9041 26.5637 27.9041 26.9865 27.8337 27.3388C27.6928 28.2548 27.27 28.5366 26.9177 28.6071C26.2131 28.748 25.438 28.2548 25.0857 27.6911C24.7334 27.1979 24.8743 26.4228 25.438 25.9296C25.6494 25.7182 26.2835 25.2954 27.27 25.5773C26.9882 24.8727 26.5654 24.1681 25.9312 23.6748C25.2971 23.1112 24.1697 22.5475 22.7605 22.9702C22.0559 23.1816 21.6331 23.6748 21.5627 24.309C21.2808 26.141 23.3242 29.2412 25.9312 31.0732C28.0451 32.4824 28.3269 32.3415 29.1724 31.8483C29.4543 31.7074 29.7361 31.5664 30.1589 31.3551C30.5816 31.2141 31.0749 31.2141 31.4976 31.4255C32.9068 32.1301 34.1751 34.7372 35.2321 38.8239C36.9936 45.6586 35.8662 49.1816 31.1453 51.225C28.0451 52.5637 24.6629 51.9296 21.4218 51.2954C18.251 50.6613 15.0098 50.0271 11.9096 51.1545C5.49764 53.5502 3.31336 57.6369 1.76322 63.4147C-1.05521 73.7019 0.77677 88.0759 2.11552 98.645C2.32691 100.477 2.53829 102.239 2.74967 103.859C2.74967 103.93 2.67921 104 2.60875 104ZM26.4245 25.8591C25.8608 25.8591 25.5085 26.141 25.3676 26.2114C24.9448 26.6342 24.8039 27.1979 25.0857 27.6206C25.438 28.1139 26.1426 28.5366 26.6358 28.4662C26.9881 28.3957 27.27 28.0434 27.3405 27.4093C27.4109 27.057 27.3405 26.5637 27.1995 26C26.9177 25.9296 26.6358 25.8591 26.4245 25.8591ZM50.8743 5.84829C50.3811 5.84829 49.8174 5.84828 49.3242 5.91875C47.915 6.13013 47.3513 6.76427 47.2808 7.04612C47.2808 7.11658 47.2808 7.2575 47.4218 7.2575C47.915 7.46888 51.7903 7.11658 52.354 5.98921C52.4245 5.91875 52.4245 5.84829 52.4245 5.77782C52.354 5.77782 52.354 5.77782 52.2835 5.77782C52.1426 5.77782 51.9312 5.77782 51.7903 5.77782C51.438 5.84829 51.1562 5.84829 50.8743 5.84829ZM52.7768 5.56644C52.9882 5.56644 53.1995 5.56644 53.3405 5.56644C53.1291 5.00276 52.9882 4.29815 52.8472 3.52308C52.7063 3.52308 52.6358 3.45262 52.4949 3.45262C52.7768 4.15723 52.9177 4.9323 52.7768 5.56644ZM53.1291 3.59354C53.27 4.29815 53.4109 4.9323 53.6223 5.49598C53.9746 5.42552 54.186 5.2846 54.2564 5.00276C54.3269 4.72091 54.1155 4.36861 53.9746 4.15723C53.7632 3.94585 53.4814 3.73446 53.1291 3.59354ZM49.5356 0.281889C48.2673 0.281889 46.8581 0.775114 46.0125 1.19788C45.5898 1.40926 45.3079 1.76156 45.167 2.18433C44.9556 2.88894 45.0966 3.52308 45.167 3.80492C45.8012 3.3117 46.5762 2.81847 47.2808 2.39571C48.5491 1.6911 50.3811 0.563732 51.7903 2.32525C52.0017 2.53663 52.1426 2.81847 52.2835 3.10032C52.4245 3.10032 52.5654 3.10032 52.7063 3.17078C52.4949 1.90249 51.9312 1.05696 51.0857 0.634193C50.6629 0.42281 50.0993 0.281889 49.5356 0.281889Z" fill="#42474C"/>
<path d="M45.2353 22.8293C45.1648 22.8293 45.0944 22.7589 45.0944 22.6884C45.0944 22.6179 45.0239 21.6315 46.3627 18.8835C47.7014 16.0651 48.9697 15.9946 50.3789 16.1356C50.8722 16.206 51.0131 15.9946 51.2245 15.7128C51.5063 15.3605 51.7882 14.9377 52.986 15.0787C55.0293 15.29 55.734 17.3334 55.734 17.4039C55.734 17.4743 55.734 17.5448 55.6635 17.6152C55.593 17.6152 55.5226 17.6152 55.4521 17.5448C55.4521 17.5448 54.818 15.6423 52.986 15.431C51.9995 15.29 51.7177 15.6423 51.5063 15.9946C51.2949 16.2765 51.0835 16.6288 50.3789 16.4879C49.0402 16.2765 47.9128 16.3469 46.6445 19.0245C45.799 20.7155 45.5876 21.702 45.4467 22.1952C45.5172 22.1247 45.6581 21.9838 45.799 21.9133C45.8695 21.8429 45.9399 21.7724 45.9399 21.7724C46.2922 21.4201 46.5741 21.1383 46.9264 20.8564C47.631 20.1518 48.3356 19.6586 48.9697 19.1654C50.3085 18.2494 52.07 17.2629 54.0429 17.8266C55.4521 18.2494 55.6635 18.8835 55.593 19.3768C55.4521 20.0814 54.7475 20.5746 54.1838 20.9269H54.1134C53.4792 21.3497 52.7041 21.702 51.8586 21.9838C50.5199 22.4066 49.0402 22.6884 47.5605 22.7589C47.4901 22.7589 47.4196 22.6884 47.4196 22.6179C47.4196 22.5475 47.4901 22.477 47.5605 22.477C48.9697 22.4066 50.4494 22.1247 51.7882 21.7724C52.5632 21.4906 53.3383 21.2087 53.902 20.786H53.9724C54.4657 20.4337 55.1703 20.0109 55.2407 19.4472C55.3112 18.8835 54.8884 18.4608 53.902 18.1789C52.07 17.6857 50.4494 18.5312 49.0402 19.5177C48.406 19.9404 47.7014 20.5041 46.9968 21.1383C46.715 21.4201 46.3627 21.702 46.0104 22.0543C46.0104 22.0543 45.9399 22.1247 45.8695 22.1952C45.7285 22.3361 45.3762 22.6179 45.3058 22.7589C45.3762 22.7589 45.3762 22.8293 45.2353 22.8293C45.3058 22.8293 45.2353 22.8293 45.2353 22.8293Z" fill="#42474C"/>
<path d="M28.0462 60.5258V74.477H32.767C34.2467 74.4065 35.3741 73.1382 35.3741 71.6585H35.515V77.3659H35.3741C35.3741 75.8862 34.2467 74.6179 32.767 74.5474H28.0462V88.4987H35.515C37.8402 88.3577 39.6722 86.4553 39.6722 84.0596H39.8131V88.6396H24.6641V88.4987H25.5096V60.5258H24.6641V60.3848H39.7427V64.9648H39.6017C39.6017 62.6396 37.7697 60.6667 35.4445 60.5258H28.0462Z" fill="#42474C"/>
<path d="M58.2748 81.5935C58.6975 83.496 58.0634 85.4689 56.7246 86.8781L56.6542 86.9486C55.6677 87.935 54.329 88.5692 52.8493 88.6396C52.7084 88.6396 52.5674 88.6396 52.4265 88.6396C51.1582 88.6396 49.8899 88.2168 48.9035 87.5122C48.9035 87.5122 48.7626 87.4418 48.6921 87.3713C48.4807 87.2304 48.1989 87.1599 47.9875 87.1599C47.2124 87.1599 46.6487 87.7941 46.6487 88.6396H46.5078V82.7914H46.6487C46.6487 84.3415 47.2829 85.8212 48.3398 86.8781C48.4807 87.019 48.6216 87.1599 48.833 87.3009L49.0444 87.4418C50.1718 88.2873 51.5105 88.6396 52.9197 88.5691C54.329 88.4987 55.5973 87.8645 56.5837 86.8781L56.6542 86.8076C57.3588 86.0326 57.7815 85.0461 57.7815 83.9892C57.7815 82.9323 57.3588 81.9458 56.5837 81.1708C56.3019 80.8889 56.02 80.6775 55.6677 80.4662C55.5268 80.3957 55.3859 80.3252 55.3154 80.2548L48.0579 76.7317C47.3533 76.3794 46.9306 75.8158 46.7192 75.1111C46.5078 74.477 46.5783 73.7019 46.7897 73.0678C47.001 72.4336 47.3533 71.87 47.8466 71.3767C47.8466 71.3767 47.8466 71.3767 47.917 71.3063L47.9875 71.3767C47.9875 71.3767 47.9875 71.3767 47.917 71.4472C47.5647 71.7995 47.4238 72.1518 47.4943 72.5746C47.7056 73.7019 49.6081 74.7588 51.6515 75.7453L54.0471 76.8727C54.9631 77.2954 56.02 77.9296 56.6542 78.5637C56.8655 78.7751 57.0065 78.9865 57.2178 79.1979C57.7111 79.9025 58.0634 80.748 58.2748 81.5935ZM65.3913 84.9757V85.0461V85.1166C65.3913 86.1735 65.955 87.1599 66.8005 87.7941C67.3642 88.2168 68.0688 88.4987 68.7734 88.4987H68.8439C70.1122 88.4987 71.31 88.0759 72.2964 87.3713L72.3669 87.5122C71.31 88.2873 70.1122 88.7101 68.7734 88.7101H68.703C67.4347 88.7101 66.2368 88.2873 65.2504 87.5122C64.5458 86.9485 63.9116 86.2439 63.4889 85.4689C63.0661 84.6234 62.8547 83.7778 62.8547 82.8618V82.7914V69.8971H62.0092V69.7561H62.8547V66.7968V61.019C61.7273 60.5258 60.5295 60.3849 59.2612 60.5962C57.9929 60.8076 56.8655 61.4418 55.9496 62.2873C54.6108 63.6261 53.8357 65.6694 54.0471 67.5014C54.188 68.9811 54.8926 70.2494 55.9496 71.0244C56.1609 71.1654 56.4428 71.2358 56.7246 71.2358C57.5702 71.2358 58.2043 70.6017 58.2043 69.7561H58.3452V75.5339H58.2043C58.1338 74.0542 57.5701 72.645 56.5132 71.5881C56.3019 71.3767 56.1609 71.2358 55.9496 71.0949C54.8222 70.3198 54.1176 68.9811 53.9767 67.5014C53.8357 65.599 54.5403 63.5556 55.9496 62.1464C56.8655 61.2304 58.0634 60.5962 59.3317 60.3849C60.5295 60.1735 61.7978 60.3144 62.9252 60.8076L62.9956 60.8781C63.7002 61.1599 64.3344 61.6531 64.8981 62.1464C65.1095 62.3578 65.3913 62.7101 65.3913 62.7101V66.9377V67.4309C65.3913 67.5718 65.3913 67.7832 65.3208 67.9242C65.3208 67.9946 65.2504 68.0651 65.2504 68.1355C64.9685 69.0515 64.0525 69.7561 63.0661 69.7561H72.4374V69.8971H65.3913V84.9757Z" fill="#42474C"/>
<path d="M92.3782 76.8726C93.576 77.1545 94.6329 77.9295 95.3375 79.1274C96.1831 80.6071 96.1831 82.3686 95.408 83.8482C95.0557 84.4824 94.7034 85.0461 94.2102 85.5393C93.3646 86.5258 92.3077 87.3008 91.1099 87.8645C89.9121 88.4282 88.6438 88.71 87.305 88.7805H87.2346C85.8958 88.7805 84.5571 88.4986 83.3592 87.8645C82.1614 87.3008 81.1045 86.5258 80.2589 85.5393C78.7088 83.7778 77.8633 81.5935 77.8633 79.2683C77.8633 76.9431 78.7088 74.7588 80.2589 72.9973C81.1045 72.0108 82.1614 71.2358 83.3592 70.6721C84.5571 70.1084 85.8958 69.8266 87.2346 69.7561H87.305C88.6438 69.7561 89.9121 70.1084 91.1099 70.6721C92.3077 71.2358 93.3646 72.0108 94.2102 72.9973C95.1966 74.0542 95.9012 75.393 96.2535 76.8022V76.8726H92.3782ZM91.3917 76.8726H80.2589V81.7344C80.2589 83.5664 81.034 85.2575 82.3023 86.5962C83.5706 87.8645 85.3321 88.6396 87.1641 88.6396C88.5029 88.6396 89.7711 88.3577 91.0394 87.794C92.2373 87.2304 93.2237 86.4553 94.0693 85.5393C94.492 85.0461 94.9148 84.4824 95.2671 83.8482C96.0422 82.439 96.0422 80.6775 95.1966 79.2683C94.4216 77.7886 93.0123 76.9431 91.3917 76.8726ZM94.0693 76.7317C93.9988 74.8997 93.2942 73.2087 92.0259 71.9404C90.7576 70.6721 88.9961 69.897 87.1641 69.897C85.3321 69.897 83.6411 70.6721 82.3023 71.9404C81.034 73.2087 80.3294 74.8997 80.2589 76.7317H94.0693Z" fill="#42474C"/>
<path d="M113.303 69.897H106.257V85.187C106.257 86.2439 106.821 87.2304 107.666 87.8645C108.23 88.2873 108.935 88.5691 109.639 88.5691H109.71C110.978 88.5691 112.176 88.1464 113.162 87.4418L113.233 87.5122C112.176 88.2873 110.978 88.7101 109.639 88.7101H109.569C108.301 88.7101 107.103 88.2873 106.116 87.5122C105.412 86.9485 104.778 86.2439 104.355 85.4689C103.932 84.6233 103.721 83.7778 103.721 82.8618V82.7914V69.897H102.875V69.7561H103.721V61.6531L102.875 62.0055L102.805 61.8645L106.187 60.3144V67.3605C106.187 67.5718 106.187 67.7128 106.116 67.9242C106.116 67.9946 106.046 68.0651 106.046 68.1355C105.694 69.0515 104.848 69.7561 103.862 69.7561H113.233V69.897H113.303Z" fill="#42474C"/>
<path d="M44.6743 103.577C44.4629 103.648 44.2515 103.789 43.9697 103.789C43.6878 103.789 43.4764 103.859 43.1946 103.859C42.49 103.859 41.9263 103.718 41.4331 103.436C40.9399 103.155 40.5171 102.802 40.2353 102.239C39.9534 101.745 39.8125 101.111 39.8125 100.477C39.8125 99.8429 39.9534 99.2087 40.2353 98.7155C40.5171 98.2223 40.9399 97.7995 41.4331 97.5881C41.9263 97.3063 42.5605 97.1653 43.2651 97.1653C43.4764 97.1653 43.6878 97.1653 43.9697 97.2358C44.2515 97.3063 44.4629 97.3767 44.6743 97.4472V98.0813C44.1811 97.87 43.7583 97.729 43.3355 97.729C42.7718 97.729 42.2786 97.87 41.8559 98.0813C41.4331 98.2927 41.0808 98.645 40.8694 99.0678C40.658 99.4906 40.5171 99.9838 40.5171 100.547C40.5171 101.111 40.658 101.604 40.8694 102.027C41.0808 102.45 41.4331 102.802 41.8559 103.014C42.2786 103.225 42.7718 103.366 43.2651 103.366C43.4764 103.366 43.7583 103.366 43.9697 103.295C44.1811 103.225 44.4629 103.155 44.6743 103.084V103.577Z" fill="#42474C"/>
<path d="M51.0195 97.3767H53.7675V97.9404H51.6537V100.125H53.4857V100.688H51.6537V103.295H53.7675V103.859H51.0195V97.3767Z" fill="#42474C"/>
<path d="M59.965 97.3767H60.5991L64.6154 102.661V97.3767H65.32V103.789H64.6859L60.5991 98.5041V103.789H59.8945V97.3767H59.965Z" fill="#42474C"/>
<path d="M71.3791 97.3767H76.0294V97.9404H73.9861V103.789H73.2815V97.9404H71.3086V97.3767H71.3791Z" fill="#42474C"/>
<path d="M83.288 100.054C83.6403 100.054 83.9926 99.9838 84.2744 99.7724C84.5563 99.561 84.6972 99.2792 84.6972 98.9973C84.6972 98.7155 84.5563 98.4337 84.3449 98.2927C84.1335 98.1518 83.8517 98.0109 83.4994 98.0109H82.6538V103.859H81.9492V97.4472H83.5698C84.063 97.4472 84.4858 97.5881 84.7676 97.87C85.1199 98.1518 85.2609 98.5041 85.2609 98.9269C85.2609 99.2792 85.1199 99.6315 84.8381 99.9133C84.5563 100.195 84.204 100.336 83.7812 100.407C84.1335 100.547 84.4153 100.688 84.6972 100.9C84.979 101.111 85.1904 101.463 85.3313 101.957L86.1064 103.859H85.4018L84.6972 102.027C84.5563 101.604 84.2744 101.323 83.9926 101.041C83.7107 100.829 83.3584 100.688 83.0061 100.618V100.054H83.288Z" fill="#42474C"/>
<path d="M92.375 97.3767H95.123V97.9404H93.0091V100.125H94.8411V100.688H93.0091V103.295H95.123V103.859H92.375V97.3767Z" fill="#42474C"/>
</g>
<defs>
<clipPath id="clip0">
<rect width="113.301" height="104" fill="white"/>
</clipPath>
</defs>
</svg>
