<svg width="522" height="348" viewBox="0 0 522 348" fill="none" xmlns="http://www.w3.org/2000/svg">
<g opacity="0.12" clip-path="url(#clip0)">
<path d="M84.5415 344C84.3108 344 84.0801 343.77 84.0801 343.539C83.3879 338.241 82.6957 332.483 82.0036 326.493C77.6199 292.171 71.8518 244.949 80.85 211.087C86.1565 191.737 93.3089 178.377 113.843 171.006C124.226 167.09 135.069 169.393 145.683 171.466C156.757 173.539 167.14 175.613 176.83 171.466C191.827 165.016 195.518 153.729 189.75 132.076C185.367 115.26 180.983 109.962 177.984 108.35C176.83 107.659 175.446 107.659 174.292 108.119C172.908 108.58 171.985 109.041 171.062 109.732C167.832 111.575 166.448 111.805 159.295 106.968C151.681 101.669 143.606 90.8429 144.76 83.9324C145.221 81.3985 146.836 79.5557 149.374 78.6343C154.45 77.0218 158.372 79.095 160.68 80.9378C162.987 83.011 164.833 85.7752 165.755 88.3091C166.909 88.7698 168.293 89.6912 169.678 90.8429C172.908 93.6072 175.907 97.5231 178.676 101.439C183.521 108.119 188.597 114.8 195.749 116.182C206.593 118.255 215.361 117.794 231.28 109.962C239.125 106.046 244.893 104.434 249.969 102.821C254.583 101.439 258.275 100.287 262.428 97.7535C263.12 97.2928 263.812 97.0624 264.273 96.6017C271.195 92.6858 273.272 91.534 270.734 74.2576C269.811 67.347 268.426 58.1329 266.35 49.1492C264.735 42.0082 263.581 36.7101 257.352 32.1031C254.352 30.0299 252.276 27.0353 250.661 23.1193C249.738 23.1193 249.046 23.1193 248.123 23.1193C247.892 23.5801 247.892 23.8104 247.662 24.2711C245.585 28.4174 232.203 29.5692 230.357 28.8782C229.665 28.6478 229.204 27.9567 229.435 27.0353C229.665 25.1925 231.972 23.1193 236.818 22.4283C239.586 21.9676 242.355 21.9676 245.124 22.1979C245.585 22.1979 246.277 22.1979 246.739 22.1979C246.969 22.1979 247.2 22.1979 247.431 22.1979C247.892 19.8944 247.431 17.3605 246.277 15.2874C242.355 15.057 237.971 16.6695 234.741 17.5909C233.126 18.2819 228.281 20.1248 227.127 23.3497C226.666 24.5015 226.897 25.8836 227.589 27.2657C228.05 28.1871 228.973 29.1085 230.127 30.0299C231.742 31.412 233.588 32.5638 235.433 33.7156C236.587 34.4066 237.74 35.328 238.894 36.0191L239.356 36.2494C240.971 37.4012 242.816 38.553 243.97 40.3958C245.124 42.2386 246.046 45.6939 244.201 47.5367C243.739 47.9974 243.047 48.4581 242.355 48.2277C241.893 48.2277 241.663 47.767 241.432 47.3063C241.201 46.8456 241.432 46.3849 241.663 45.9242C241.663 45.6939 241.893 45.4635 241.893 45.2332C241.893 45.2332 241.893 45.2332 241.663 45.0028C241.201 44.7725 240.74 45.0028 240.509 45.0028C240.048 45.4635 239.817 46.3849 239.586 47.3063C239.356 47.767 239.356 48.4581 239.125 48.9188C238.894 49.8402 238.202 50.3009 237.74 50.3009C236.587 50.5313 235.203 49.6099 234.049 48.6884C233.357 48.2277 232.434 47.5367 231.972 47.5367C230.127 47.3063 228.973 48.9188 228.742 49.6099C228.05 50.992 227.819 51.683 228.05 51.9134C228.281 51.9134 228.742 51.2223 229.204 50.992C229.435 50.5313 229.896 50.3009 230.127 50.0706C231.511 49.1492 232.203 49.8402 232.434 50.3009C233.357 51.4527 233.126 54.4473 232.203 55.599C230.357 57.4418 227.127 57.9025 224.82 57.2115C223.436 56.7508 222.282 55.8294 221.821 54.4473C221.129 52.3741 221.359 49.6099 222.282 47.767C222.513 47.5367 222.744 47.5367 222.974 47.5367C223.205 47.767 223.205 47.9974 223.205 48.2277C222.282 49.8402 222.051 52.1437 222.744 53.9866C222.974 54.908 223.667 55.8294 225.051 56.2901C227.127 56.7508 229.896 56.5204 231.28 54.908C231.972 54.2169 232.203 51.683 231.511 50.992C231.511 50.7616 231.28 50.5313 230.357 50.992C230.127 50.992 229.896 51.4527 229.665 51.683C228.973 52.3741 228.512 53.0651 227.819 53.0651C227.589 53.0651 227.127 52.8348 227.127 52.6044C226.666 51.9134 227.358 50.5313 227.819 49.3795C228.512 47.9974 230.127 46.6153 231.972 46.8456C232.665 47.076 233.588 47.5367 234.51 48.2277C235.433 48.9188 236.587 49.8402 237.279 49.6099C237.51 49.6099 237.971 49.1492 238.202 48.6884C238.433 48.2277 238.433 47.767 238.663 47.3063C238.894 46.1546 239.125 45.0028 240.048 44.3118C240.509 44.0814 241.201 43.8511 241.893 44.0814C242.355 44.3118 242.816 44.3118 242.816 44.7725C243.047 45.2332 242.816 45.6939 242.586 46.1546C242.586 46.3849 242.355 46.6153 242.355 46.8456C242.355 47.076 242.355 47.076 242.586 47.076C242.816 47.076 243.278 46.8456 243.509 46.6153C244.662 45.2332 244.201 42.2386 243.047 40.6261C241.893 39.0137 240.278 37.8619 238.663 36.7101L238.202 36.4798C237.048 35.7887 235.895 34.8673 234.741 34.1763C232.895 33.0245 231.05 31.8727 229.435 30.4906C228.281 29.5692 227.358 28.6478 226.666 27.496C225.743 25.8836 225.512 24.2711 226.204 22.6586C227.589 19.2034 232.203 17.1302 234.972 16.4391C237.971 15.5177 242.355 14.1356 246.046 14.1356C246.046 14.1356 246.046 14.1356 246.277 14.1356C245.816 13.4445 245.354 12.7535 244.893 12.2928C241.201 7.68574 236.356 9.98926 231.28 12.7535C228.742 14.366 226.204 15.9784 223.897 17.5909C223.897 17.8212 223.666 17.8212 223.436 17.5909C222.974 17.3605 222.282 14.8267 222.513 12.5231C222.744 9.75891 223.897 7.91609 226.204 6.99468C230.357 5.15186 238.433 2.38764 243.97 5.38222C247.2 6.99468 249.046 10.2196 249.969 14.8267C251.353 15.2874 252.507 15.9784 253.66 17.1302C254.352 18.0516 255.045 19.4337 254.814 20.5855C254.583 21.9676 253.43 22.6586 252.276 22.889C253.66 26.5746 255.737 29.3389 258.505 31.412C264.966 36.2494 266.35 41.5475 267.965 48.9188C270.041 57.9025 271.426 67.1166 272.349 74.0272C274.887 91.9947 272.579 93.3768 265.427 97.2928C264.735 97.5231 264.273 97.9839 263.581 98.4446C259.428 100.978 255.506 102.13 250.892 103.512C245.816 105.125 240.278 106.737 232.434 110.653C216.283 118.485 207.285 118.946 196.441 116.873C188.828 115.491 183.752 108.58 178.676 101.669C175.676 97.7535 172.908 94.0679 169.908 91.3036C168.755 90.3822 167.832 89.6912 166.909 89.2305C167.37 90.8429 167.37 92.225 167.14 93.3768C166.678 96.3714 165.294 97.2928 164.14 97.5231C161.833 97.9838 159.295 96.3714 158.142 94.5286C156.988 92.9161 157.449 90.3822 159.295 88.7698C159.987 88.0787 162.064 86.6966 165.294 87.618C164.371 85.3145 162.987 83.0109 160.91 81.3985C158.834 79.5557 155.142 77.7128 150.528 79.095C148.221 79.786 146.836 81.3985 146.606 83.4717C145.683 89.4608 152.374 99.5963 160.91 105.585C167.832 110.193 168.755 109.732 171.523 108.119C172.446 107.659 173.369 107.198 174.754 106.507C176.138 106.046 177.753 106.046 179.137 106.737C183.752 109.041 187.905 117.564 191.366 130.924C197.134 153.268 193.442 164.786 177.984 171.466C167.832 175.843 156.757 173.77 146.144 171.697C135.762 169.623 125.148 167.55 114.997 171.236C94.0011 179.068 86.8487 192.428 81.7728 211.317C72.544 244.949 78.5427 291.941 82.9265 326.493C83.6186 332.483 84.3108 338.241 85.0029 343.539C85.0029 343.77 84.7722 344 84.5415 344ZM162.525 88.5394C160.68 88.5394 159.526 89.4608 159.065 89.6912C157.68 91.0733 157.219 92.9161 158.142 94.2982C159.295 95.9107 161.602 97.2928 163.217 97.0624C164.371 96.8321 165.294 95.6803 165.525 93.6072C165.755 92.4554 165.525 90.8429 165.063 89.0001C164.14 88.7698 163.217 88.5394 162.525 88.5394ZM242.586 23.1193C240.971 23.1193 239.125 23.1193 237.51 23.3497C232.895 24.0408 231.05 26.1139 230.819 27.0353C230.819 27.2657 230.819 27.7264 231.28 27.7264C232.895 28.4174 245.585 27.2657 247.431 23.5801C247.662 23.3497 247.662 23.1193 247.662 22.889C247.431 22.889 247.431 22.889 247.2 22.889C246.739 22.889 246.046 22.889 245.585 22.889C244.431 23.1193 243.509 23.1193 242.586 23.1193ZM248.815 22.1979C249.507 22.1979 250.199 22.1979 250.661 22.1979C249.969 20.3551 249.507 18.0516 249.046 15.5177C248.584 15.5177 248.354 15.2874 247.892 15.2874C248.815 17.5909 249.277 20.1248 248.815 22.1979ZM249.969 15.7481C250.43 18.0516 250.892 20.1248 251.584 21.9676C252.737 21.7372 253.43 21.2765 253.66 20.3551C253.891 19.4337 253.199 18.2819 252.737 17.5909C252.045 16.8998 251.122 16.2088 249.969 15.7481ZM238.202 4.92151C234.049 4.92151 229.435 6.53398 226.666 7.91609C225.282 8.60715 224.359 9.75891 223.897 11.141C223.205 13.4445 223.667 15.5177 223.897 16.4391C225.974 14.8267 228.512 13.2142 230.819 11.8321C234.972 9.52856 240.971 5.84292 245.585 11.6017C246.277 12.2928 246.739 13.2142 247.2 14.1356C247.662 14.1356 248.123 14.1356 248.584 14.366C247.892 10.2196 246.046 7.45539 243.278 6.07327C241.893 5.38222 240.048 4.92151 238.202 4.92151Z" fill="#42474C"/>
<path d="M224.124 78.6343C223.893 78.6343 223.662 78.404 223.662 78.1736C223.662 77.9433 223.432 74.7183 227.815 65.7346C232.199 56.5205 236.352 56.2902 240.966 56.7509C242.581 56.9812 243.043 56.2902 243.735 55.3688C244.658 54.217 245.581 52.8349 249.503 53.2956C256.194 53.9866 258.501 60.6669 258.501 60.8972C258.501 61.1276 258.501 61.3579 258.27 61.5883C258.04 61.5883 257.809 61.5883 257.578 61.3579C257.578 61.3579 255.502 55.1384 249.503 54.4473C246.273 53.9866 245.35 55.1384 244.658 56.2902C243.966 57.2116 243.274 58.3633 240.966 57.9026C236.583 57.2116 232.891 57.4419 228.738 66.1953C225.969 71.7238 225.277 74.9487 224.816 76.5612C225.047 76.3308 225.508 75.8701 225.969 75.6397C226.2 75.4094 226.431 75.179 226.431 75.179C227.585 74.0273 228.507 73.1059 229.661 72.1845C231.968 69.8809 234.275 68.2685 236.352 66.656C240.736 63.6614 246.504 60.4365 252.964 62.2793C257.578 63.6614 258.27 65.7346 258.04 67.3471C257.578 69.6506 255.271 71.2631 253.425 72.4148H253.195C251.118 73.7969 248.58 74.9487 245.811 75.8701C241.428 77.2522 236.583 78.1736 231.737 78.404C231.507 78.404 231.276 78.1736 231.276 77.9433C231.276 77.7129 231.507 77.4826 231.737 77.4826C236.352 77.2522 241.197 76.3308 245.581 75.179C248.119 74.2576 250.657 73.3362 252.502 71.9541H252.733C254.348 70.8023 256.655 69.4202 256.886 67.5774C257.117 65.7346 255.733 64.3525 252.502 63.4311C246.504 61.8186 241.197 64.5828 236.583 67.8078C234.506 69.1899 232.199 71.0327 229.892 73.1059C228.969 74.0273 227.815 74.9487 226.662 76.1004C226.662 76.1004 226.431 76.3308 226.2 76.5612C225.739 77.0219 224.585 77.9433 224.354 78.404C224.585 78.404 224.585 78.6343 224.124 78.6343C224.354 78.6343 224.124 78.6343 224.124 78.6343Z" fill="#42474C"/>
<path d="M167.832 201.873V247.482H183.291C188.136 247.252 191.827 243.106 191.827 238.268H192.289V256.927H191.827C191.827 252.09 188.136 247.943 183.291 247.713H167.832V293.323H192.289C199.903 292.862 205.901 286.642 205.901 278.81H206.363V293.783H156.758V293.323H159.526V201.873H156.758V201.412H206.132V216.385H205.671C205.671 208.783 199.672 202.333 192.058 201.873H167.832Z" fill="#42474C"/>
<path d="M266.812 270.748C268.196 276.968 266.12 283.417 261.736 288.025L261.505 288.255C258.275 291.48 253.891 293.553 249.046 293.783C248.585 293.783 248.123 293.783 247.662 293.783C243.509 293.783 239.356 292.401 236.126 290.098C236.126 290.098 235.664 289.867 235.434 289.637C234.741 289.176 233.819 288.946 233.126 288.946C230.588 288.946 228.743 291.019 228.743 293.783H228.281V274.664H228.743C228.743 279.732 230.819 284.569 234.28 288.025C234.741 288.485 235.203 288.946 235.895 289.407L236.587 289.867C240.279 292.632 244.662 293.783 249.277 293.553C253.891 293.323 258.044 291.249 261.274 288.025L261.505 287.794C263.812 285.26 265.197 282.035 265.197 278.58C265.197 275.125 263.812 271.9 261.274 269.366C260.352 268.445 259.429 267.753 258.275 267.062C257.814 266.832 257.352 266.602 257.121 266.371L233.357 254.854C231.05 253.702 229.666 251.859 228.973 249.556C228.281 247.482 228.512 244.949 229.204 242.875C229.896 240.802 231.05 238.959 232.665 237.347C232.665 237.347 232.665 237.347 232.896 237.117L233.126 237.347C233.126 237.347 233.126 237.347 232.896 237.577C231.742 238.729 231.281 239.881 231.511 241.263C232.204 244.949 238.433 248.404 245.124 251.629L252.968 255.314C255.968 256.697 259.429 258.77 261.505 260.843C262.197 261.534 262.659 262.225 263.351 262.916C264.966 265.22 266.12 267.984 266.812 270.748ZM290.115 281.805V282.035V282.266C290.115 285.721 291.96 288.946 294.729 291.019C296.575 292.401 298.882 293.323 301.189 293.323H301.42C305.573 293.323 309.495 291.94 312.725 289.637L312.956 290.098C309.495 292.632 305.573 294.014 301.189 294.014H300.959C296.806 294.014 292.883 292.632 289.653 290.098C287.346 288.255 285.269 285.951 283.885 283.417C282.501 280.653 281.809 277.889 281.809 274.894V274.664V232.51H279.04V232.049H281.809V222.374V203.485C278.117 201.873 274.195 201.412 270.042 202.103C265.889 202.794 262.197 204.867 259.198 207.632C254.814 212.008 252.276 218.688 252.968 224.678C253.43 229.515 255.737 233.661 259.198 236.195C259.89 236.656 260.813 236.886 261.736 236.886C264.505 236.886 266.581 234.813 266.581 232.049H267.042V250.938H266.581C266.35 246.1 264.505 241.493 261.044 238.038C260.352 237.347 259.89 236.886 259.198 236.426C255.506 233.892 253.199 229.515 252.738 224.678C252.276 218.458 254.584 211.778 259.198 207.171C262.197 204.176 266.12 202.103 270.273 201.412C274.195 200.721 278.348 201.182 282.039 202.794L282.27 203.024C284.577 203.946 286.654 205.558 288.5 207.171C289.192 207.862 290.115 209.014 290.115 209.014V222.835V224.447C290.115 224.908 290.115 225.599 289.884 226.06C289.884 226.29 289.653 226.52 289.653 226.751C288.73 229.745 285.731 232.049 282.501 232.049H313.187V232.51H290.115V281.805Z" fill="#42474C"/>
<path d="M378.482 255.315C382.404 256.236 385.865 258.77 388.172 262.686C390.941 267.523 390.941 273.282 388.403 278.119C387.249 280.193 386.096 282.035 384.481 283.648C381.712 286.873 378.251 289.407 374.329 291.249C370.407 293.092 366.254 294.014 361.87 294.244H361.639C357.255 294.244 352.872 293.323 348.949 291.249C345.027 289.407 341.566 286.873 338.798 283.648C333.722 277.889 330.953 270.748 330.953 263.146C330.953 255.545 333.722 248.404 338.798 242.645C341.566 239.42 345.027 236.886 348.949 235.044C352.872 233.201 357.255 232.279 361.639 232.049H361.87C366.254 232.049 370.407 233.201 374.329 235.044C378.251 236.886 381.712 239.42 384.481 242.645C387.711 246.1 390.018 250.477 391.171 255.084V255.315H378.482ZM375.252 255.315H338.798V271.209C338.798 277.198 341.336 282.726 345.489 287.103C349.642 291.249 355.41 293.783 361.408 293.783C365.792 293.783 369.945 292.862 374.098 291.019C378.02 289.176 381.25 286.642 384.019 283.648C385.403 282.035 386.788 280.193 387.941 278.119C390.479 273.512 390.479 267.754 387.711 263.146C385.173 258.309 380.558 255.545 375.252 255.315ZM384.019 254.854C383.788 248.865 381.481 243.336 377.328 239.19C373.175 235.044 367.407 232.51 361.408 232.51C355.41 232.51 349.872 235.044 345.489 239.19C341.336 243.336 339.028 248.865 338.798 254.854H384.019Z" fill="#42474C"/>
<path d="M447.01 232.51H423.938V282.496C423.938 285.951 425.784 289.176 428.553 291.25C430.398 292.632 432.706 293.553 435.013 293.553H435.244C439.397 293.553 443.319 292.171 446.549 289.867L446.78 290.098C443.319 292.632 439.397 294.014 435.013 294.014H434.782C430.629 294.014 426.707 292.632 423.477 290.098C421.17 288.255 419.093 285.951 417.709 283.418C416.324 280.653 415.632 277.889 415.632 274.895V274.664V232.51H412.864V232.049H415.632V205.558L412.864 206.71L412.633 206.25L423.707 201.182V224.217C423.707 224.908 423.707 225.369 423.477 226.06C423.477 226.29 423.246 226.521 423.246 226.751C422.092 229.745 419.324 232.049 416.094 232.049H446.78V232.51H447.01Z" fill="#42474C"/>
<path d="M222.287 342.618C221.595 342.848 220.903 343.309 219.98 343.309C219.057 343.309 218.365 343.539 217.442 343.539C215.135 343.539 213.289 343.079 211.674 342.157C210.059 341.236 208.674 340.084 207.752 338.241C206.829 336.629 206.367 334.556 206.367 332.482C206.367 330.409 206.829 328.336 207.752 326.724C208.674 325.111 210.059 323.729 211.674 323.038C213.289 322.117 215.365 321.656 217.673 321.656C218.365 321.656 219.057 321.656 219.98 321.886C220.903 322.117 221.595 322.347 222.287 322.577V324.65C220.672 323.959 219.288 323.499 217.903 323.499C216.057 323.499 214.442 323.959 213.058 324.65C211.674 325.342 210.52 326.493 209.828 327.875C209.136 329.258 208.674 330.87 208.674 332.713C208.674 334.556 209.136 336.168 209.828 337.55C210.52 338.932 211.674 340.084 213.058 340.775C214.442 341.466 216.057 341.927 217.673 341.927C218.365 341.927 219.288 341.927 219.98 341.697C220.672 341.466 221.595 341.236 222.287 341.006V342.618Z" fill="#42474C"/>
<path d="M243.059 322.347H252.057V324.19H245.135V331.331H251.134V333.173H245.135V341.697H252.057V343.539H243.059V322.347Z" fill="#42474C"/>
<path d="M272.356 322.347H274.432L287.583 339.623V322.347H289.891V343.309H287.814L274.432 326.033V343.309H272.125V322.347H272.356Z" fill="#42474C"/>
<path d="M309.739 322.347H324.966V324.19H318.275V343.309H315.968V324.19H309.508V322.347H309.739Z" fill="#42474C"/>
<path d="M348.72 331.1C349.873 331.1 351.027 330.87 351.95 330.179C352.873 329.488 353.334 328.566 353.334 327.645C353.334 326.724 352.873 325.802 352.18 325.341C351.488 324.881 350.565 324.42 349.412 324.42H346.643V343.539H344.336V322.577H349.643C351.258 322.577 352.642 323.038 353.565 323.959C354.718 324.881 355.18 326.033 355.18 327.415C355.18 328.566 354.718 329.718 353.796 330.64C352.873 331.561 351.719 332.022 350.335 332.252C351.488 332.713 352.411 333.173 353.334 333.865C354.257 334.556 354.949 335.707 355.411 337.32L357.949 343.539H355.641L353.334 337.55C352.873 336.168 351.95 335.247 351.027 334.325C350.104 333.634 348.95 333.173 347.797 332.943V331.1H348.72Z" fill="#42474C"/>
<path d="M378.48 322.347H387.479V324.19H380.557V331.331H386.556V333.173H380.557V341.697H387.479V343.539H378.48V322.347Z" fill="#42474C"/>
</g>
<defs>
<clipPath id="clip0">
<rect width="371" height="340" fill="white" transform="translate(76 4)"/>
</clipPath>
</defs>
</svg>
