<svg width="174" height="72" viewBox="0 0 174 72" fill="none" xmlns="http://www.w3.org/2000/svg">
<g clip-path="url(#clip0)">
<path d="M32.7965 62.6232V71.2465H31.2109V58.4372L39.3059 67.8139V59.107H40.8915V72L32.7965 62.6232Z" fill="#42474C"/>
<path d="M39.4724 68.4L39.5559 59.4418H40.7242V71.3302L32.7127 62.0372H32.6293V70.9953H31.4609V59.1069L39.4724 68.4Z" fill="#42474C"/>
<path d="M43.7285 71.2465V59.1069H50.6551V60.6976H45.3976V64.2976H50.0709V65.8883H45.3976V69.6558H50.6551V71.2465H43.7285Z" fill="#42474C"/>
<path d="M43.9785 70.9953V59.3581H50.321V60.4465H45.0634V64.5488H49.7368V65.6372H45.0634V69.9069H50.321V70.9953H43.9785Z" fill="#42474C"/>
<path d="M51.8242 59.1069H53.6602L57.8329 68.1488L61.8386 59.1069H63.5911L57.8329 71.9163L51.8242 59.1069Z" fill="#42474C"/>
<path d="M53.492 59.3581L57.7481 68.6511H57.8316L62.0043 59.3581H63.2561L57.8316 71.2465L52.2402 59.3581H53.492Z" fill="#42474C"/>
<path d="M65.7598 71.2465L68.1799 66.6418L63.9238 59.1069H65.8433L69.0979 64.9674L72.0188 59.1069H73.8548L67.6792 71.2465H65.7598Z" fill="#42474C"/>
<path d="M65.6776 59.3581L69.0157 65.386H69.0992L72.1035 59.3581H73.4387L67.5136 70.9953H66.1783L68.515 66.6418L64.4258 59.3581H65.6776Z" fill="#42474C"/>
<path d="M77.4443 71.2465V60.6976H74.5234V59.1069H82.0342V60.6976H79.0299V71.2465H77.4443Z" fill="#42474C"/>
<path d="M78.7806 70.9953H77.6123V60.4465H74.6914V59.3581H81.7849V60.4465H78.7806V70.9953Z" fill="#42474C"/>
<path d="M86.958 71.5814C86.7076 71.5814 86.4573 71.5814 86.1234 71.4977C85.7896 71.414 85.4558 71.3302 85.122 71.2465C84.7882 71.0791 84.4544 70.9116 84.1206 70.5767C83.7868 70.3256 83.453 69.907 83.2026 69.4046L83.1191 69.2372L84.3709 68.1488L84.5378 68.4C84.7882 68.8186 85.122 69.2372 85.5393 69.4884C85.9565 69.7395 86.4573 69.907 86.958 69.907C87.2918 69.907 87.5422 69.8233 87.876 69.7395C88.1263 69.6558 88.3767 69.4884 88.5436 69.3209C88.7105 69.1535 88.8774 68.986 88.9609 68.7349C89.0443 68.4837 89.1278 68.2326 89.1278 67.9814C89.1278 67.5628 89.0443 67.3116 88.8774 67.0605C88.7105 66.8093 88.4601 66.6419 88.2098 66.4744C87.876 66.307 87.5422 66.1395 87.2083 65.9721C86.7911 65.8046 86.3738 65.7209 85.9565 65.5535C85.7062 65.4698 85.3724 65.3023 85.122 65.1349C84.7882 64.9674 84.5378 64.7163 84.2875 64.4651C84.0371 64.2139 83.8702 63.8791 83.7033 63.5442C83.5364 63.2093 83.453 62.707 83.453 62.2046C83.453 61.7023 83.5364 61.2 83.7033 60.7814C83.8702 60.3628 84.1206 60.0279 84.5378 59.693C84.8717 59.3581 85.2889 59.107 85.7062 58.9395C86.1234 58.7721 86.6242 58.6884 87.2083 58.6884C87.9594 58.6884 88.627 58.8558 89.1278 59.1907C89.6285 59.5256 90.1292 59.8605 90.463 60.2791L90.6299 60.4465L89.4616 61.7023L89.2947 61.4512C89.0443 61.1163 88.7939 60.8651 88.4601 60.6139C88.1263 60.3628 87.7091 60.2791 87.2083 60.2791C86.5407 60.2791 86.04 60.4465 85.7062 60.7814C85.3724 61.1163 85.122 61.6186 85.122 62.1209C85.122 62.4558 85.2055 62.707 85.2889 62.8744C85.4558 63.1256 85.6227 63.293 85.7896 63.4605C86.04 63.6279 86.2069 63.7116 86.4573 63.8791C86.7076 63.9628 86.958 64.1302 87.2918 64.2139C87.6256 64.3814 88.0429 64.4651 88.4601 64.6325C88.8774 64.8 89.2947 65.0512 89.6285 65.3023C89.9623 65.5535 90.2961 65.9721 90.5465 66.3907C90.7968 66.8093 90.8803 67.3116 90.8803 67.9814C90.8803 68.4 90.7968 68.9023 90.6299 69.3209C90.463 69.7395 90.2126 70.1581 89.8788 70.4093C89.545 70.7442 89.1278 70.9953 88.627 71.1628C88.1263 71.414 87.6256 71.5814 86.958 71.5814Z" fill="#42474C"/>
<path d="M84.2871 68.5675C84.5375 69.0698 84.8713 69.4884 85.372 69.7396C85.7893 70.0744 86.3735 70.2419 86.9576 70.2419C87.2914 70.2419 87.6253 70.1582 87.9591 70.0744C88.2929 69.9907 88.5432 69.8233 88.7101 69.6558C88.9605 69.4884 89.1274 69.2372 89.2109 68.9861C89.2943 68.7349 89.3778 68.4837 89.3778 68.1488C89.3778 67.7302 89.2943 67.3116 89.1274 67.0605C88.9605 66.8093 88.7101 66.5581 88.3763 66.3907C88.0425 66.2233 87.7087 66.0558 87.2914 65.8884C86.8742 65.7209 86.4569 65.6372 86.0396 65.4698C85.7893 65.386 85.4555 65.2186 85.2051 65.0512C84.9547 64.8837 84.6209 64.7163 84.454 64.4651C84.2037 64.214 84.0368 63.9628 83.8699 63.6279C83.703 63.293 83.6195 62.8744 83.6195 62.4558C83.6195 61.9535 83.703 61.5349 83.8699 61.2C84.0368 60.7814 84.2871 60.4465 84.6209 60.1953C84.9548 59.9442 85.2886 59.693 85.7058 59.5256C86.1231 59.3581 86.6238 59.2744 87.1245 59.2744C87.8756 59.2744 88.4598 59.4419 88.9605 59.693C89.4612 60.0279 89.8785 60.3628 90.2123 60.6977L89.3778 61.6186C89.1274 61.2837 88.7936 60.9488 88.4598 60.6977C88.0425 60.4465 87.6253 60.3628 87.1245 60.3628C86.4569 60.3628 85.8727 60.5302 85.4555 60.9488C85.0382 61.3674 84.8713 61.8698 84.8713 62.4558C84.8713 62.7907 84.9548 63.1256 85.1217 63.3767C85.2886 63.6279 85.4555 63.7954 85.7058 63.9628C85.9562 64.1302 86.2065 64.2977 86.4569 64.3814C86.7073 64.4651 87.0411 64.6326 87.2914 64.7163C87.6253 64.8 88.0425 64.9674 88.3763 65.1349C88.7936 65.3023 89.1274 65.4698 89.4612 65.8047C89.795 66.0558 90.0454 66.3907 90.2958 66.8093C90.5461 67.2279 90.6296 67.6465 90.6296 68.2326C90.6296 68.6512 90.5461 69.0698 90.3792 69.4884C90.2123 69.907 89.9619 70.2419 89.7116 70.493C89.3778 70.8279 89.044 70.9954 88.5432 71.2465C88.126 71.414 87.5418 71.4977 86.9576 71.4977C86.7073 71.4977 86.4569 71.4977 86.2066 71.414C85.8727 71.414 85.6224 71.2465 85.2886 71.1628C84.9547 70.9954 84.6209 70.8279 84.2871 70.5768C83.9533 70.3256 83.703 69.9907 83.3691 69.4884L84.2871 68.5675Z" fill="#42474C"/>
<path d="M99.4761 71.2465L94.6359 65.6372V71.2465H92.9668V59.1069H94.6359V64.1302L98.9754 59.1069H101.062L96.138 64.8L101.646 71.2465H99.4761Z" fill="#42474C"/>
<path d="M94.3851 70.9953H93.2168V59.3581H94.3851V64.8L99.0585 59.3581H100.477L95.8038 64.8L101.145 70.9953H99.6427L94.4686 64.9674V70.9953H94.3851Z" fill="#42474C"/>
<path d="M103.565 71.2465L106.069 66.6418L101.812 59.1069H103.732L106.903 64.9674L109.824 59.1069H111.66L105.568 71.2465H103.565Z" fill="#42474C"/>
<path d="M103.564 59.3581L106.902 65.386H106.986L109.99 59.3581H111.325L105.4 70.9953H104.065L106.402 66.6418L102.312 59.3581H103.564Z" fill="#42474C"/>
<path d="M123.426 71.5814C122.425 71.5814 121.59 71.414 120.839 70.9954C120.088 70.5767 119.42 70.0744 118.92 69.4884C118.419 68.9023 118.002 68.1488 117.751 67.3954C117.501 66.6419 117.334 65.8884 117.334 65.1349C117.334 64.2977 117.501 63.4605 117.835 62.707C118.169 61.9535 118.586 61.2837 119.17 60.6977C119.754 60.1116 120.422 59.6093 121.173 59.2744C121.924 58.9395 122.842 58.7721 123.76 58.7721C124.094 58.7721 124.511 58.7721 124.928 58.8558C125.429 58.9395 125.846 59.107 126.347 59.3581L126.43 59.4419L126.681 61.6186L126.18 61.2837C125.763 60.9488 125.429 60.7814 124.928 60.614C124.511 60.4465 124.01 60.4465 123.593 60.4465C122.758 60.4465 122.091 60.614 121.507 60.8651C120.922 61.1163 120.422 61.5349 120.088 61.9535C119.671 62.4558 119.42 62.9581 119.253 63.5442C119.086 64.1302 119.003 64.7163 119.003 65.2186C119.003 65.8884 119.087 66.4744 119.337 67.0605C119.587 67.6465 119.921 68.1488 120.338 68.5674C120.756 68.9861 121.256 69.3209 121.84 69.5721C122.425 69.8233 123.009 69.9907 123.676 69.9907C124.01 69.9907 124.344 69.907 124.845 69.8233C125.262 69.6558 125.679 69.4884 126.097 69.1535L126.597 68.8186L126.347 70.9954L126.18 71.0791C125.846 71.2465 125.429 71.3302 124.928 71.4977C124.511 71.4977 124.01 71.5814 123.426 71.5814Z" fill="#42474C"/>
<path d="M126.348 61.1163C125.93 60.7814 125.513 60.5302 125.012 60.4465C124.595 60.2791 124.094 60.1953 123.594 60.1953C122.759 60.1953 122.008 60.3628 121.424 60.614C120.84 60.9488 120.339 61.2837 119.922 61.786C119.504 62.2884 119.254 62.7907 119.004 63.3767C118.837 63.9628 118.67 64.5488 118.67 65.1349C118.67 65.8047 118.837 66.4744 119.087 67.0605C119.337 67.6465 119.671 68.1488 120.172 68.6512C120.589 69.0698 121.173 69.4884 121.758 69.7395C122.342 69.9907 123.009 70.1581 123.677 70.1581C124.011 70.1581 124.428 70.0744 124.845 69.907C125.346 69.7395 125.763 69.4884 126.181 69.1535L126.014 70.6605C125.68 70.8279 125.263 70.9116 124.845 71.0791C124.428 71.1628 123.927 71.2465 123.343 71.2465C122.425 71.2465 121.591 71.0791 120.84 70.6605C120.089 70.2419 119.504 69.8232 119.004 69.2372C118.503 68.6512 118.086 67.9814 117.835 67.2279C117.585 66.4744 117.418 65.8046 117.418 65.0512C117.418 64.2139 117.585 63.4605 117.835 62.7907C118.169 62.0372 118.586 61.4512 119.087 60.8651C119.671 60.2791 120.255 59.8605 121.006 59.5256C121.758 59.1907 122.592 59.0233 123.427 59.0233C123.76 59.0233 124.178 59.0233 124.595 59.107C125.012 59.1907 125.513 59.3581 125.93 59.5256L126.348 61.1163Z" fill="#42474C"/>
<path d="M138.615 71.2465L136.361 66.6419H131.771L129.518 71.2465H127.766L133.941 58.8558H134.275L134.358 59.0233L140.451 71.3302H138.615V71.2465ZM135.527 65.1349L134.025 62.0372L132.522 65.1349H135.527Z" fill="#42474C"/>
<path d="M138.782 70.9953L136.529 66.3907H131.605L129.352 70.9953H128.184L134.109 59.1069L140.034 70.9953H138.782ZM135.945 65.386L134.025 61.5348L132.106 65.386H135.945Z" fill="#42474C"/>
<path d="M145.208 71.5814C144.958 71.5814 144.707 71.5814 144.373 71.4977C144.04 71.414 143.706 71.3302 143.372 71.2465C143.038 71.0791 142.704 70.9116 142.371 70.5767C142.037 70.3256 141.703 69.907 141.453 69.4046L141.369 69.2372L142.621 68.1488L142.788 68.4C143.038 68.8186 143.372 69.2372 143.789 69.4884C144.207 69.7395 144.707 69.907 145.208 69.907C145.542 69.907 145.792 69.8233 146.126 69.7395C146.376 69.6558 146.627 69.4884 146.794 69.3209C146.961 69.1535 147.127 68.986 147.211 68.7349C147.294 68.4837 147.378 68.2326 147.378 67.9814C147.378 67.5628 147.294 67.3116 147.127 67.0605C146.961 66.8093 146.71 66.6419 146.46 66.4744C146.126 66.307 145.792 66.1395 145.458 65.9721C145.041 65.8046 144.624 65.7209 144.207 65.5535C143.956 65.4698 143.622 65.3023 143.372 65.1349C143.038 64.9674 142.788 64.7163 142.537 64.4651C142.287 64.2139 142.12 63.8791 141.953 63.5442C141.786 63.2093 141.703 62.707 141.703 62.2046C141.703 61.7023 141.786 61.2 141.953 60.7814C142.12 60.3628 142.371 60.0279 142.788 59.693C143.122 59.3581 143.539 59.107 143.956 58.9395C144.373 58.7721 144.874 58.6884 145.458 58.6884C146.209 58.6884 146.877 58.8558 147.378 59.1907C147.879 59.5256 148.379 59.8605 148.713 60.2791L148.88 60.4465L147.712 61.7023L147.545 61.4512C147.294 61.1163 147.044 60.8651 146.71 60.6139C146.376 60.3628 145.959 60.2791 145.458 60.2791C144.791 60.2791 144.29 60.4465 143.956 60.7814C143.622 61.1163 143.372 61.6186 143.372 62.1209C143.372 62.4558 143.455 62.707 143.539 62.8744C143.706 63.1256 143.873 63.293 144.04 63.4605C144.29 63.6279 144.457 63.7116 144.707 63.8791C144.958 63.9628 145.208 64.1302 145.542 64.2139C145.876 64.3814 146.293 64.4651 146.71 64.6325C147.127 64.8 147.545 65.0512 147.878 65.3023C148.212 65.5535 148.546 65.9721 148.796 66.3907C149.047 66.8093 149.13 67.3116 149.13 67.9814C149.13 68.4 149.047 68.9023 148.88 69.3209C148.713 69.7395 148.463 70.1581 148.129 70.4093C147.795 70.7442 147.378 70.9953 146.877 71.1628C146.376 71.414 145.792 71.5814 145.208 71.5814Z" fill="#42474C"/>
<path d="M142.537 68.5675C142.787 69.0698 143.121 69.4884 143.622 69.7396C144.039 70.0744 144.623 70.2419 145.208 70.2419C145.541 70.2419 145.875 70.1582 146.209 70.0744C146.543 69.9907 146.793 69.8233 146.96 69.6558C147.211 69.4884 147.377 69.2372 147.461 68.9861C147.544 68.7349 147.628 68.4837 147.628 68.1488C147.628 67.7302 147.544 67.3116 147.377 67.0605C147.211 66.8093 146.96 66.5581 146.626 66.3907C146.293 66.2233 145.959 66.0558 145.541 65.8884C145.124 65.7209 144.707 65.6372 144.29 65.4698C144.039 65.386 143.705 65.2186 143.455 65.0512C143.205 64.8837 142.871 64.7163 142.704 64.4651C142.454 64.214 142.287 63.9628 142.12 63.6279C141.953 63.293 141.87 62.8744 141.87 62.4558C141.87 61.9535 141.953 61.5349 142.12 61.2C142.287 60.7814 142.537 60.4465 142.871 60.1953C143.205 59.9442 143.539 59.693 143.956 59.5256C144.373 59.3581 144.874 59.2744 145.375 59.2744C146.126 59.2744 146.71 59.4419 147.211 59.693C147.711 60.0279 148.128 60.3628 148.462 60.6977L147.628 61.6186C147.377 61.2837 147.044 60.9488 146.71 60.6977C146.293 60.4465 145.875 60.3628 145.375 60.3628C144.707 60.3628 144.123 60.5302 143.705 60.9488C143.288 61.3674 143.121 61.8698 143.121 62.4558C143.121 62.7907 143.205 63.1256 143.372 63.3767C143.539 63.6279 143.705 63.7954 143.956 63.9628C144.206 64.1302 144.457 64.2977 144.707 64.3814C144.957 64.4651 145.291 64.6326 145.541 64.7163C145.875 64.8 146.293 64.9674 146.626 65.1349C147.044 65.3023 147.377 65.4698 147.711 65.8047C148.045 66.0558 148.295 66.3907 148.546 66.8093C148.796 67.2279 148.88 67.6465 148.88 68.2326C148.88 68.6512 148.796 69.0698 148.629 69.4884C148.462 69.907 148.212 70.2419 147.962 70.493C147.628 70.8279 147.294 70.9954 146.793 71.2465C146.376 71.414 145.792 71.4977 145.208 71.4977C144.957 71.4977 144.707 71.4977 144.457 71.414C144.123 71.414 143.872 71.2465 143.539 71.1628C143.205 70.9954 142.871 70.8279 142.537 70.5768C142.203 70.3256 141.953 69.9907 141.619 69.4884L142.537 68.5675Z" fill="#42474C"/>
<path d="M153.136 71.2465V60.6976H150.215V59.1069H157.809V60.6976H154.805V71.2465H153.136Z" fill="#42474C"/>
<path d="M154.554 70.9953H153.386V60.4465H150.465V59.3581H157.558V60.4465H154.554V70.9953Z" fill="#42474C"/>
<path d="M159.645 71.2465V59.1069H161.23V69.6558H165.153V71.2465H159.645Z" fill="#42474C"/>
<path d="M159.896 70.9953V59.3581H161.065V69.9069H164.987V70.9953H159.896Z" fill="#42474C"/>
<path d="M167.156 71.2465V59.1069H173.999V60.6976H168.825V64.2976H173.415V65.8883H168.825V69.6558H173.999V71.2465H167.156Z" fill="#42474C"/>
<path d="M167.406 70.9953V59.3581H173.749V60.4465H168.575V64.5488H173.248V65.6372H168.575V69.9069H173.832V70.9953H167.406Z" fill="#42474C"/>
<path d="M34.4667 37.7581L35.9689 37.4232V25.2837L45.6494 22.7721C45.8998 22.6883 45.9832 22.4372 45.9832 22.2697C45.8998 22.1023 45.7329 21.9349 45.566 21.9349H45.4825L36.0523 24.4465V22.8558L30.5444 21.2651L34.7171 18.4186L47.4854 2.17672L46.2336 15.4046L32.2969 20.1767C32.2135 20.1767 32.13 20.2604 32.0466 20.4279C31.9631 20.5116 31.9631 20.679 32.0466 20.7628C32.13 20.9302 32.2969 21.0139 32.4638 21.0139C32.5473 21.0139 32.5473 21.0139 32.6307 21.0139L47.0681 16.0744L48.5703 0.920908C48.6538 0.920908 48.6538 1.00463 48.7372 1.00463L50.4063 1.33951L63.2581 18.0837L67.6811 20.0093L63.8422 22.186L48.0696 18.586V16.5767L66.1789 20.5116H66.2624C66.4293 20.5116 66.5962 20.3442 66.6796 20.1767C66.7631 19.9256 66.5962 19.7581 66.3458 19.6744L47.235 15.5721V18.6697L35.5516 21.5163C35.3012 21.6 35.2178 21.7674 35.2178 22.0186C35.3012 22.186 35.4681 22.3535 35.6351 22.3535H35.7185L47.235 19.5907V22.4372L62.2566 26.2046H62.3401C62.507 26.2046 62.6739 26.0372 62.7573 25.8697C62.7573 25.786 62.7573 25.6186 62.6739 25.5349C62.5904 25.4511 62.507 25.3674 62.4235 25.3674L48.0696 21.7674V19.507L63.425 22.9395V25.7023L60.2537 27.6279V37.7581L43.5631 34.6604L42.1444 34.9953V30.893L38.8063 31.8139V35.6651L36.7199 36.3349C36.4696 36.4186 36.3861 36.6697 36.4696 36.8372C36.553 37.0046 36.7199 37.0883 36.8869 37.0883C36.9703 37.0883 36.9703 37.0883 37.0538 37.0883L39.7243 36.1674V32.4L41.3933 31.9814V36.0837L43.6466 35.5814L61.1717 38.8465V28.1302L64.343 26.1209V22.8558L69.6005 19.9256L63.7588 17.4139L50.8235 0.586024L48.8207 0.167419H48.7372C48.6538 0.167419 48.6538 0.167419 48.5703 0.167419L34.0494 17.7488L28.4581 21.5163L35.0509 23.3581V24.5302L32.3804 25.2837C32.2969 25.2837 32.2135 25.3674 32.13 25.4511C32.0466 25.5349 32.0466 25.7023 32.0466 25.786C32.13 25.9535 32.2969 26.1209 32.4638 26.1209H32.5473L35.0509 25.4511V36.6697L33.966 36.9209L30.8782 40.2697L29.4595 45.5442L26.5387 45.9628L22.6164 51.6558L12.5185 54.0837L11.5171 58.1023L9.5142 62.1209L7.92859 60.0279L0.417797 61.5349C0.334344 61.5349 0.250891 61.6186 0.167438 61.7023C0.0839844 61.786 0.0839844 61.8697 0.0839844 62.0372C0.0839844 62.2046 0.334344 62.3721 0.50125 62.3721H0.584704L7.59477 60.9488L9.6811 63.6279L12.3516 58.3535L13.2696 54.7535L23.2005 52.4093L27.1228 46.7163L30.2106 46.2976L31.7128 40.6883L34.4667 37.7581Z" fill="#42474C"/>
<path d="M9.76403 63.8791L7.59424 61.1163L0.584173 62.5395C0.333813 62.5395 0.0834532 62.3721 0 62.1209C0 61.9535 0 61.786 0.0834532 61.7023C0.166906 61.6186 0.333813 61.4512 0.417266 61.4512L8.01151 59.9442L9.51367 61.8698L11.4331 58.1023L12.4345 54H12.518L22.5324 51.5721L26.5381 45.8791H26.6216L29.459 45.5442L30.8777 40.3535L33.9655 37.0047L35.0504 36.7535V25.7023L32.7137 26.2884C32.7137 26.2884 32.6302 26.2884 32.5468 26.2884C32.2964 26.2884 32.046 26.1209 32.046 25.8698C32.046 25.7023 32.046 25.5349 32.1295 25.4512C32.2129 25.2837 32.2964 25.2 32.4633 25.2L35.0504 24.5302V23.5256L28.2072 21.6L33.9655 17.6651L48.8201 0L50.9065 0.418605L63.8417 17.1628L69.8503 19.8419L64.4259 22.8558V26.1209L61.2547 28.1302V38.9302L43.5626 35.6651L41.1424 36.1674V32.1488L39.7237 32.4837V36.2512L36.9698 37.1721C36.8863 37.1721 36.8863 37.1721 36.8029 37.1721C36.5525 37.1721 36.3856 37.0047 36.3022 36.7535C36.2187 36.4186 36.3856 36.1674 36.636 36.0837L38.6388 35.414V31.5628L42.2273 30.6419V34.7442L43.4791 34.493L60.0029 37.5907V27.5442L62.1727 26.2047C62.1727 26.2047 62.1727 26.2047 62.0892 26.2047H62.0057L46.9007 22.4372V19.6744L35.4676 22.4372C35.2173 22.4372 34.9669 22.2698 34.8834 22.0186C34.8 21.6837 34.9669 21.4326 35.3007 21.3488L46.9842 18.4186V16.1581L32.5468 21.1814C32.2964 21.2651 31.9626 21.0977 31.7957 20.8465C31.7957 20.7628 31.7957 20.6791 31.7957 20.5116L30.7942 21.1814L36.1352 22.6884V24.2791L45.3986 21.7674C45.482 21.7674 45.482 21.7674 45.5655 21.7674C45.8158 21.7674 46.0662 21.9349 46.0662 22.186C46.1496 22.5209 45.9827 22.7721 45.6489 22.8558L36.0518 25.3674V37.507L34.4662 37.8419L31.7957 40.7721L30.2935 46.3814L27.2057 46.8837L23.2834 52.493H23.2L13.3525 54.8372L12.518 58.4372L9.76403 63.8791ZM7.6777 60.7814L9.68057 63.3767L12.2676 58.3535L13.1856 54.6698H13.2691L23.1165 52.3256L27.0388 46.6326H27.1223L30.1266 46.214L31.6288 40.6884L34.3827 37.6744L35.8014 37.4233V25.2H35.8849L45.5655 22.6884C45.7324 22.6884 45.8158 22.5209 45.7324 22.3535C45.7324 22.186 45.482 22.1023 45.3986 22.186L35.8014 24.6977V23.0233L30.1266 21.4326L34.5496 18.4186L47.6518 1.75814L46.3165 15.4884H46.2331L32.2964 20.2605C32.2129 20.2605 32.1295 20.3442 32.1295 20.4279C32.1295 20.5116 32.1295 20.5953 32.1295 20.6791C32.2129 20.8465 32.3799 20.9302 32.4633 20.8465L46.9007 15.907L48.4029 0.669767L48.5698 0.837209C48.5698 0.837209 48.6532 0.837209 48.6532 0.92093L50.4058 1.25581L63.2575 17.9163L67.9309 19.9256L63.8417 22.186L47.9022 18.5023V16.2419H48.0691L66.1784 20.1767C66.3453 20.1767 66.4288 20.093 66.5122 19.9256C66.5122 19.7581 66.4288 19.5907 66.2619 19.5907L47.318 15.4884V18.5023L35.5511 21.3488C35.3842 21.3488 35.3007 21.5163 35.3007 21.6837C35.3007 21.8512 35.4676 21.9349 35.5511 21.9349H35.6345L47.318 19.0884V22.0186L62.2561 25.9535C62.423 25.9535 62.5065 25.8698 62.5065 25.7023C62.5065 25.6186 62.5065 25.5349 62.5065 25.4512C62.5065 25.3674 62.423 25.3674 62.3396 25.2837L47.9022 21.6837V19.1721L63.5914 22.7721V25.7023L60.4201 27.7116V37.9256L43.646 34.8279L42.0604 35.1628V31.0605L38.9727 31.8977V35.7488L36.8029 36.5023C36.636 36.586 36.5525 36.7535 36.636 36.8372C36.7194 37.0047 36.8863 37.0884 36.9698 37.0047L39.5568 36.1674V32.3163L41.4763 31.814V35.9163L43.646 35.4977L61.0043 38.6791V28.0465L64.1755 26.0372V22.7721L69.2662 19.9256L63.6748 17.414L50.7396 0.669767L48.7367 0.251163C48.6532 0.251163 48.6532 0.251163 48.6532 0.251163L48.4029 0.334884L34.1324 17.9163L28.7914 21.5163L35.2173 23.3581V24.7814L32.3799 25.5349C32.2964 25.5349 32.2129 25.6186 32.2129 25.7023C32.2129 25.786 32.1295 25.8698 32.2129 25.9535C32.2129 26.1209 32.3799 26.2047 32.4633 26.2047H32.5468L35.2173 25.5349V36.8372L34.0489 37.0884L31.0446 40.3535L29.6259 45.6279L26.705 46.0465L22.7827 51.7395H22.6993L12.6849 54.0837L11.7669 58.0186L9.59712 62.2047L7.92806 60.0279L0.500719 61.5349C0.417266 61.5349 0.333813 61.6186 0.333813 61.6186C0.25036 61.8698 0.25036 61.9535 0.25036 61.9535C0.25036 62.1209 0.417266 62.2047 0.500719 62.2047H0.584173L7.6777 60.7814ZM48.1525 21.5163L62.423 25.1163C62.5899 25.1163 62.6734 25.2837 62.7568 25.3674C62.8403 25.5349 62.8403 25.6186 62.8403 25.786C62.8403 25.8698 62.8403 25.8698 62.7568 25.9535L63.341 25.6186V23.107L48.1525 19.5907V21.5163ZM48.1525 18.4186L63.7583 22.0186L66.3453 20.5953C66.2619 20.5953 66.2619 20.5953 66.1784 20.5953H66.095L48.1525 16.7442V18.4186ZM66.6791 19.7581C66.7626 19.8419 66.7626 20.0093 66.7626 20.1767C66.7626 20.3442 66.6791 20.4279 66.5957 20.5116L67.3467 20.093L66.6791 19.7581ZM47.318 2.67907L34.7165 18.586L32.7137 20.0093L46.0662 15.4047L47.318 2.67907ZM47.2345 15.3209L65.928 19.4233L63.0906 18.1674L50.2388 1.42326L48.5698 1.08837L47.2345 15.3209Z" fill="#42474C"/>
<path d="M172.916 47.386H97.057L86.9592 44.9581L84.0383 48.7256L81.7851 48.893L78.8642 39.6L75.6095 33.9907L68.6829 32.986L61.7563 35.9163L61.339 40.1023L52.1592 42.1116H51.9923L49.739 45.6279L47.152 46.0465L42.1448 45.0418V42.3628L38.8067 43.0325V44.4558L37.5549 44.2046L31.129 45.293C30.8786 45.293 30.7117 45.5442 30.7951 45.7953C30.7951 45.9628 31.0455 46.1302 31.2124 46.1302H31.2959L37.5549 45.1256L39.7246 45.6279V43.8697L41.3937 43.5349V45.879L47.2354 47.0511L50.4067 46.6325L52.6599 43.0325L62.257 40.8558L62.6743 36.586L68.9333 33.9907L75.1923 34.8279L78.1966 40.0186L81.2844 49.8977L84.539 49.5628L87.3764 45.9628L97.057 48.307H172.999C173.25 48.307 173.417 48.1395 173.417 47.8884C173.333 47.5535 173.166 47.386 172.916 47.386Z" fill="#42474C"/>
<path d="M81.1174 49.9814V49.8977L78.0297 40.0186L75.0253 34.9116L68.8498 34.0744L62.7577 36.6697L62.3404 40.9395H62.257L52.7433 43.0325L50.4901 46.6325L47.2354 47.0511L41.3102 45.879V43.6186L39.8915 43.8697V45.7116L37.5548 45.2093L31.2959 46.2139C31.0455 46.2139 30.7951 46.0465 30.7117 45.7116C30.6282 45.3767 30.8786 45.1256 31.1289 45.0418L37.5548 43.9535L38.7232 44.2046V42.8651L42.3117 42.1116V44.8744L47.152 45.7953L49.6556 45.4604L51.9088 41.9442L52.1592 41.8604L61.2556 39.8511L61.6728 35.6651L68.6829 32.7349L75.693 33.7395V33.8232L78.9476 39.4325L81.8685 48.7256L83.9548 48.5581L86.9591 44.7907L97.1404 47.2186H172.999C173.333 47.2186 173.584 47.4697 173.584 47.8046C173.584 48.1395 173.333 48.3907 172.999 48.3907H97.057L87.3764 46.0465L84.539 49.6465L81.1174 49.9814ZM68.7663 33.7395L75.1088 34.6604V34.7442L78.1131 39.9349L81.2009 49.8139L84.2887 49.479L87.1261 45.7953L96.8901 48.1395H172.833C172.999 48.1395 173.083 47.9721 173.083 47.8046C173.083 47.6372 172.916 47.5535 172.833 47.5535H96.9735L86.9591 45.1256L84.0383 48.893L81.6181 49.1442V49.0604L78.6973 39.7674L75.4426 34.1581L68.6829 33.2372L61.8397 36L61.4225 40.186H61.339L52.0757 42.2791L49.8225 45.7953L47.152 46.1302L42.0613 45.2093V42.6139L38.9736 43.2837V44.707L37.5548 44.3721L31.2124 45.4604C31.0455 45.4604 30.962 45.6279 30.962 45.7953C30.962 45.9628 31.129 46.0465 31.2124 46.0465H31.2959L37.5548 44.9581L39.5577 45.4604V43.786L41.4771 43.3674V45.7953L47.152 46.8837L50.2397 46.4651L52.493 42.8651H52.5764L62.0901 40.7721L62.5074 36.5023L68.7663 33.7395Z" fill="#42474C"/>
<path d="M110.658 41.3581L109.156 39.3488H108.071V41.3581H106.986V35.6651H109.49C110.158 35.6651 110.742 35.8325 111.159 36.2511C111.493 36.586 111.66 37.0046 111.66 37.507C111.66 38.0093 111.493 38.4279 111.242 38.6791C110.992 38.9302 110.742 39.0139 110.491 39.1814L112.16 41.4419H110.658V41.3581ZM109.406 38.3442C109.74 38.3442 109.991 38.2605 110.241 38.093C110.408 37.9256 110.491 37.7581 110.491 37.507C110.491 37.2558 110.408 37.0884 110.241 36.9209C110.074 36.7535 109.74 36.6698 109.406 36.6698H108.071V38.2605H109.406V38.3442Z" fill="#42474C"/>
<path d="M107.236 41.107V35.9163H109.49C110.157 35.9163 110.658 36.0838 110.992 36.4186C111.242 36.6698 111.409 37.0047 111.409 37.4233C111.409 37.8419 111.242 38.1768 110.992 38.4279C110.741 38.6791 110.408 38.8465 109.99 38.9303L111.576 41.0233H110.825L109.323 39.014H107.821V41.0233H107.236V41.107ZM107.821 38.5117H109.406C109.823 38.5117 110.157 38.4279 110.408 38.2605C110.658 38.0931 110.741 37.8419 110.741 37.4233C110.741 37.0884 110.658 36.8372 110.408 36.6698C110.157 36.5024 109.823 36.4186 109.406 36.4186H107.821V38.5117Z" fill="#42474C"/>
<path d="M113.83 41.3582V35.6651H118.086V36.6698H114.915V37.9256H117.752V39.014H114.915V40.3535H118.17V41.3582H113.83Z" fill="#42474C"/>
<path d="M114.08 41.107V35.9163H117.835V36.4186H114.664V38.1768H117.502V38.6791H114.664V40.521H117.835V41.0233H114.08V41.107Z" fill="#42474C"/>
<path d="M122.342 41.4419C121.508 41.4419 120.756 41.107 120.089 40.5209L119.922 40.3535L120.59 39.5163L120.756 39.6837C121.007 39.9349 121.257 40.1023 121.508 40.186C121.758 40.2698 122.008 40.3535 122.342 40.3535C122.592 40.3535 122.843 40.2698 123.01 40.186C123.177 40.1023 123.26 39.9349 123.26 39.7674C123.26 39.6 123.177 39.4326 123.093 39.3488C123.01 39.2651 122.759 39.0977 122.092 39.0139C121.424 38.8465 120.923 38.6791 120.673 38.4279C120.339 38.1767 120.172 37.7581 120.172 37.2558C120.172 36.7535 120.339 36.3349 120.756 36.0837C121.09 35.7488 121.591 35.6651 122.175 35.6651C122.926 35.6651 123.594 35.9163 124.178 36.3349L124.345 36.5023L123.677 37.3395L123.51 37.1721C123.093 36.8372 122.676 36.6698 122.175 36.6698C121.925 36.6698 121.674 36.7535 121.508 36.8372C121.341 36.9209 121.257 37.0884 121.257 37.2558C121.257 37.4232 121.341 37.5907 121.424 37.6744C121.507 37.7581 121.841 37.9256 122.425 38.0093C123.093 38.1767 123.51 38.3442 123.844 38.5953C124.178 38.8465 124.345 39.2651 124.345 39.7674C124.345 40.2698 124.178 40.6884 123.761 41.0233C123.427 41.2744 122.926 41.4419 122.342 41.4419Z" fill="#42474C"/>
<path d="M122.342 41.1907C121.508 41.1907 120.84 40.9396 120.256 40.3535L120.59 39.9349C120.84 40.1861 121.174 40.3535 121.424 40.521C121.675 40.6047 122.008 40.6884 122.342 40.6884C122.676 40.6884 122.926 40.6047 123.177 40.4372C123.427 40.2698 123.511 40.0186 123.511 39.7675C123.511 39.5163 123.427 39.3489 123.26 39.1814C123.093 39.014 122.676 38.9303 122.175 38.7628C121.591 38.5954 121.09 38.4279 120.84 38.2605C120.59 38.0093 120.423 37.6744 120.423 37.2558C120.423 36.8372 120.59 36.5023 120.923 36.2512C121.257 36 121.675 35.8326 122.175 35.8326C122.843 35.8326 123.511 36.0837 124.011 36.5023L123.677 36.921C123.177 36.5023 122.759 36.3349 122.175 36.3349C121.841 36.3349 121.591 36.4186 121.341 36.5861C121.09 36.7535 121.007 36.921 121.007 37.1721C121.007 37.4233 121.09 37.6744 121.341 37.7582C121.508 37.9256 121.925 38.0093 122.426 38.1768C123.01 38.3442 123.427 38.5117 123.677 38.6791C123.928 38.9303 124.095 39.2651 124.095 39.6C124.095 40.0186 123.928 40.4372 123.594 40.6884C123.26 41.0233 122.843 41.1907 122.342 41.1907Z" fill="#42474C"/>
<path d="M127.934 41.3582V36.6698H126.182V35.6651H130.772V36.6698H129.019V41.3582H127.934Z" fill="#42474C"/>
<path d="M128.184 41.107V36.4186H126.432V35.9163H130.521V36.4186H128.768V41.107H128.184Z" fill="#42474C"/>
<path d="M137.112 41.3582L136.528 40.0186H134.024L133.44 41.3582H132.271L134.859 35.5814H135.693L138.28 41.3582H137.112ZM136.027 38.9303L135.192 37.0884L134.358 38.9303H136.027Z" fill="#42474C"/>
<path d="M132.607 41.107L134.944 35.8326H135.528L137.865 41.107H137.197L136.613 39.7675H133.776L133.192 41.107H132.607ZM134.11 39.1814H136.446L135.278 36.5023L134.11 39.1814Z" fill="#42474C"/>
<path d="M142.537 41.4419C141.786 41.4419 141.202 41.1907 140.785 40.7721C140.368 40.3535 140.117 39.6837 140.117 38.9302V35.6651H141.202V38.9302C141.202 39.4326 141.286 39.7674 141.536 40.1023C141.786 40.3535 142.12 40.5209 142.537 40.5209C142.955 40.5209 143.288 40.4372 143.539 40.186C143.789 39.9349 143.873 39.6 143.873 39.0977V35.8325H144.957V39.0977C144.957 39.9349 144.707 40.5209 144.29 41.0233C143.789 41.1907 143.205 41.4419 142.537 41.4419Z" fill="#42474C"/>
<path d="M142.537 41.1907C141.869 41.1907 141.369 41.0233 140.951 40.6047C140.534 40.1861 140.367 39.6838 140.367 38.9303V35.9163H140.951V38.9303C140.951 39.5163 141.118 39.9349 141.369 40.2698C141.619 40.6047 142.036 40.6884 142.537 40.6884C143.038 40.6884 143.372 40.521 143.705 40.2698C143.956 40.0186 144.123 39.5163 144.123 39.014V36H144.707V39.014C144.707 39.7675 144.54 40.3535 144.123 40.6884C143.705 41.0233 143.205 41.1907 142.537 41.1907Z" fill="#42474C"/>
<path d="M150.967 41.3581L149.465 39.3488H148.38V41.3581H147.295V35.6651H149.799C150.466 35.6651 151.05 35.8325 151.468 36.2511C151.801 36.586 151.968 37.0046 151.968 37.507C151.968 38.0093 151.801 38.4279 151.551 38.6791C151.301 38.9302 151.05 39.0139 150.8 39.1814L152.469 41.4419H150.967V41.3581ZM149.715 38.3442C150.049 38.3442 150.299 38.2605 150.55 38.093C150.717 37.9256 150.8 37.7581 150.8 37.507C150.8 37.2558 150.717 37.0884 150.55 36.9209C150.383 36.7535 150.049 36.6698 149.715 36.6698H148.38V38.2605H149.715V38.3442Z" fill="#42474C"/>
<path d="M147.545 41.107V35.9163H149.798C150.466 35.9163 150.966 36.0838 151.3 36.4186C151.551 36.6698 151.718 37.0047 151.718 37.4233C151.718 37.8419 151.551 38.1768 151.3 38.4279C151.05 38.6791 150.716 38.8465 150.299 38.9303L151.884 41.0233H151.133L149.631 39.014H148.129V41.0233H147.545V41.107ZM148.129 38.5117H149.715C150.132 38.5117 150.466 38.4279 150.716 38.2605C150.966 38.0931 151.05 37.8419 151.05 37.4233C151.05 37.0884 150.966 36.8372 150.716 36.6698C150.466 36.5024 150.132 36.4186 149.715 36.4186H148.129V38.5117Z" fill="#42474C"/>
<path d="M158.476 41.3582L157.892 40.0186H155.389L154.805 41.3582H153.553L156.14 35.5814H156.974L159.561 41.3582H158.476ZM157.392 38.9303L156.557 37.0884L155.723 38.9303H157.392Z" fill="#42474C"/>
<path d="M153.971 41.107L156.307 35.8326H156.892L159.228 41.107H158.561L157.976 39.7675H155.139L154.555 41.107H153.971ZM155.389 39.1814H157.726L156.558 36.5023L155.389 39.1814Z" fill="#42474C"/>
<path d="M165.57 41.3582L162.565 37.5907V41.3582H161.48V35.6651H162.398L165.319 39.3488V35.6651H166.404V41.3582H165.57Z" fill="#42474C"/>
<path d="M161.732 41.107V35.9163H162.317L165.571 40.1024V35.9163H166.155V41.107H165.655L162.317 36.8372V41.107H161.732Z" fill="#42474C"/>
<path d="M170.245 41.3582V36.6698H168.492V35.6651H173.082V36.6698H171.33V41.3582H170.245Z" fill="#42474C"/>
<path d="M170.495 41.107V36.4186H168.742V35.9163H172.831V36.4186H171.079V41.107H170.495Z" fill="#42474C"/>
<path d="M34.9666 37.7582L37.7206 37.0047L37.6371 35.9163L34.6328 36.8372L34.9666 37.7582Z" fill="#42474C"/>
<path d="M68.1812 19.8419L64.7596 19.0884L64.4258 20.1768L67.8474 20.9302L68.1812 19.8419Z" fill="#42474C"/>
<path d="M63.8424 25.3674L60.5877 24.614L60.2539 25.7023L63.8424 26.4558V25.3674Z" fill="#42474C"/>
<path d="M33.4636 22.9395L36.9687 22.0186L36.7183 20.9302L32.9629 22.0186L33.4636 22.9395Z" fill="#42474C"/>
<path d="M30.3762 46.4651L32.6295 46.0465V44.8744L29.959 45.2093L30.3762 46.4651Z" fill="#42474C"/>
<path d="M31.4617 21.5163L33.8818 20.6791L33.548 19.6744L31.2113 20.4279L30.043 21.3489L31.4617 21.5163Z" fill="#42474C"/>
</g>
<defs>
<clipPath id="clip0">
<rect width="174" height="72" fill="white"/>
</clipPath>
</defs>
</svg>
