<svg width="50" height="50" viewBox="0 0 50 50" fill="none" xmlns="http://www.w3.org/2000/svg">
<path opacity="0.08" fill-rule="evenodd" clip-rule="evenodd" d="M25 50C38.8071 50 50 38.8071 50 25C50 11.1929 38.8071 0 25 0C11.1929 0 0 11.1929 0 25C0 38.8071 11.1929 50 25 50Z" fill="#FCF6F0"/>
<path fill-rule="evenodd" clip-rule="evenodd" d="M29.4461 14H20.5539C16.9401 14 14 16.9401 14 20.5539V29.4461C14 33.0599 16.9401 36 20.5539 36H29.4461C33.0599 36 36 33.0599 36 29.4461V20.5539C36 16.9401 33.0599 14 29.4461 14ZM33.7867 29.4461C33.7867 31.8434 31.8433 33.7868 29.446 33.7868H20.5539C18.1566 33.7868 16.2132 31.8434 16.2132 29.4461V20.5539C16.2132 18.1566 18.1566 16.2132 20.5539 16.2132H29.446C31.8433 16.2132 33.7867 18.1566 33.7867 20.5539V29.4461ZM19.31 25C19.31 21.8625 21.8625 19.31 25 19.31C28.1375 19.31 30.69 21.8625 30.69 25C30.69 28.1374 28.1375 30.6899 25 30.6899C21.8625 30.6899 19.31 28.1374 19.31 25ZM25 28.4768C23.0798 28.4768 21.5232 26.9202 21.5232 25C21.5232 23.0798 23.0799 21.5232 25 21.5232C26.9202 21.5232 28.4768 23.0798 28.4768 25C28.4768 26.9201 26.9201 28.4768 25 28.4768ZM32.0644 19.3527C32.0644 20.1057 31.454 20.7162 30.701 20.7162C29.948 20.7162 29.3376 20.1057 29.3376 19.3527C29.3376 18.5997 29.948 17.9893 30.701 17.9893C31.454 17.9893 32.0644 18.5997 32.0644 19.3527Z" fill="#EDDBBF"/>
</svg>
