<svg width="234" height="148" viewBox="0 0 234 148" fill="none" xmlns="http://www.w3.org/2000/svg">
<g clip-path="url(#clip0)">
<path d="M135.04 62.4377L137.673 58.7455L123.816 20.462L121.779 14.8279L117.094 1.8682L116.417 0H114.049L113.247 2.20654L108.724 14.7103L106.833 19.9398L93.0718 57.9805L95.5431 61.4448L108.694 25.0957L110.592 19.8589L115.108 7.35513L119.8 20.3149L115.277 32.8113L113.379 38.0481L101.766 70.1606L104.465 73.9559L115.417 43.6821L126.523 74.3751L129.038 70.852L117.314 38.4453L121.838 25.9416L135.04 62.4377Z" fill="#D6B580"/>
<path d="M44.1529 147.823V142.888L42.0126 146.044H41.8581L41.7772 145.977L39.6736 142.896V147.823H38.6733V141.035H39.6369L41.9243 144.462L44.2118 141.035H45.1753V147.823H44.1529Z" fill="#D6B580"/>
<path d="M38.813 147.676V141.182H39.5559L41.9242 144.727L44.2926 141.182H45.0281V147.676H44.2999V142.417L41.9316 145.896H41.8948L39.5264 142.425V147.676H38.813Z" fill="#D6B580"/>
<path d="M46.9111 147.823V141.035H51.8979V141.998H47.9335V143.925H51.4787V144.881H47.9335V146.86H51.942V147.823H46.9111Z" fill="#D6B580"/>
<path d="M47.0581 147.676V141.182H51.7507V141.851H47.7863V144.065H51.3314V144.734H47.7863V147.007H51.7948V147.676H47.0581Z" fill="#D6B580"/>
<path d="M55.7078 146.853C56.0469 146.869 56.3857 146.816 56.7041 146.699C57.0225 146.581 57.3141 146.401 57.5613 146.169C58.0074 145.701 58.2562 145.079 58.2562 144.433C58.2562 143.786 58.0074 143.165 57.5613 142.697C57.3158 142.464 57.0258 142.282 56.7086 142.163C56.3914 142.045 56.0536 141.991 55.7152 142.006H54.3324V146.853H55.7078ZM53.3101 147.838V141.049H55.7078C56.1815 141.032 56.654 141.108 57.0983 141.273C57.5426 141.439 57.9499 141.69 58.2968 142.013C58.6162 142.331 58.8696 142.71 59.0424 143.126C59.2153 143.543 59.3043 143.989 59.3043 144.44C59.3043 144.891 59.2153 145.338 59.0424 145.754C58.8696 146.171 58.6162 146.549 58.2968 146.867C57.9504 147.192 57.5434 147.444 57.0991 147.611C56.6549 147.777 56.182 147.855 55.7078 147.838H53.3101Z" fill="#D6B580"/>
<path d="M54.1852 147H55.7077C56.0666 147.015 56.4249 146.958 56.7612 146.832C57.0974 146.706 57.4046 146.512 57.6642 146.264C58.1389 145.77 58.4039 145.111 58.4039 144.425C58.4039 143.74 58.1389 143.081 57.6642 142.587C57.4067 142.338 57.1009 142.144 56.7657 142.017C56.4305 141.891 56.073 141.834 55.7151 141.851H54.1852V147ZM53.4497 147.676V141.219H55.7004C56.1555 141.2 56.6097 141.273 57.0365 141.432C57.4633 141.591 57.8542 141.834 58.1864 142.145C58.494 142.448 58.7382 142.81 58.9049 143.208C59.0716 143.606 59.1574 144.034 59.1574 144.466C59.1574 144.898 59.0716 145.325 58.9049 145.724C58.7382 146.122 58.494 146.483 58.1864 146.786C57.8535 147.097 57.4625 147.339 57.0358 147.498C56.6092 147.657 56.1554 147.73 55.7004 147.713L53.4497 147.676Z" fill="#D6B580"/>
<path d="M61.8422 141.035H60.8198V147.823H61.8422V141.035Z" fill="#D6B580"/>
<path d="M61.695 141.182H60.9595V147.676H61.695V141.182Z" fill="#D6B580"/>
<path d="M66.7478 147.934C66.2935 147.945 65.8419 147.86 65.4224 147.686C65.003 147.511 64.625 147.249 64.3133 146.919C63.691 146.24 63.3457 145.353 63.3457 144.433C63.3457 143.512 63.691 142.625 64.3133 141.947C64.6272 141.614 65.0074 141.352 65.4293 141.176C65.8513 140.999 66.3054 140.914 66.7625 140.924C67.2673 140.91 67.7691 141.006 68.2335 141.204C68.6619 141.409 69.0543 141.682 69.3956 142.013L69.4986 142.116L68.8146 142.851L68.7116 142.748C68.1995 142.224 67.5027 141.92 66.7699 141.903C66.4515 141.896 66.1355 141.958 65.8435 142.085C65.5515 142.212 65.2904 142.401 65.0782 142.638C64.6259 143.133 64.3833 143.784 64.4015 144.455C64.3836 145.122 64.6294 145.77 65.0855 146.257C65.2969 146.493 65.5568 146.681 65.8475 146.808C66.1381 146.935 66.4528 146.998 66.7699 146.992C67.1318 146.999 67.4908 146.926 67.8216 146.779C68.1698 146.602 68.4876 146.372 68.7631 146.095L68.8734 145.999L69.5501 146.735L69.4545 146.831C69.1102 147.182 68.7069 147.471 68.263 147.684C67.7859 147.893 67.2684 147.993 66.7478 147.978" fill="#D6B580"/>
<path d="M66.7478 147.787C66.3138 147.798 65.8823 147.718 65.4817 147.55C65.0811 147.383 64.7205 147.133 64.4236 146.816C63.825 146.167 63.4927 145.316 63.4927 144.433C63.4927 143.55 63.825 142.699 64.4236 142.05C64.7235 141.73 65.0876 141.478 65.492 141.309C65.8964 141.141 66.3319 141.06 66.7699 141.071C67.2469 141.058 67.7212 141.149 68.16 141.336C68.5775 141.532 68.9582 141.798 69.2853 142.123L68.7999 142.638C68.5361 142.362 68.2202 142.142 67.8704 141.989C67.5207 141.836 67.1441 141.754 66.7625 141.748C66.4254 141.74 66.0907 141.805 65.781 141.939C65.4713 142.072 65.1939 142.27 64.9678 142.52C64.504 143.048 64.2481 143.727 64.2481 144.429C64.2481 145.132 64.504 145.81 64.9678 146.338C65.1981 146.58 65.4771 146.771 65.7864 146.898C66.0957 147.024 66.4284 147.084 66.7625 147.073C67.1452 147.083 67.5251 147.005 67.8731 146.845C68.2388 146.654 68.5716 146.406 68.8587 146.11L69.3442 146.617C69.0121 146.959 68.6209 147.238 68.1894 147.441C67.7266 147.645 67.2236 147.74 66.7184 147.72" fill="#D6B580"/>
<path d="M74.8018 145.154L73.5514 142.351L72.2937 145.154H74.8018ZM75.9786 147.823L75.2431 146.11H71.8745L71.1389 147.823H70.0283L73.1248 140.991H74.0001L77.0893 147.823H75.9786Z" fill="#D6B580"/>
<path d="M72.0803 145.301H75.0224L73.5514 141.991L72.0803 145.301ZM70.271 147.676L73.213 141.138H73.897L76.8391 147.676H76.0521L75.3166 145.963H71.7788L71.0433 147.676H70.271Z" fill="#D6B580"/>
<path d="M78.1851 147.823V141.035H79.2074V146.853H82.8629V147.823H78.1851Z" fill="#D6B580"/>
<path d="M78.332 147.676V141.182H79.0602V147H82.7157V147.676H78.332Z" fill="#D6B580"/>
<path d="M89.3355 141.822C89.2236 141.816 89.1116 141.833 89.0065 141.872C88.9015 141.911 88.8057 141.972 88.725 142.05C88.6468 142.124 88.5858 142.214 88.5463 142.315C88.5069 142.415 88.4901 142.523 88.497 142.631C88.4958 142.795 88.5363 142.957 88.6147 143.101C88.7361 143.303 88.8791 143.49 89.0413 143.66C89.7768 143.396 90.1078 143.043 90.1078 142.572C90.1094 142.472 90.0906 142.373 90.0527 142.281C90.0148 142.188 89.9584 142.105 89.8872 142.035C89.815 141.963 89.7287 141.907 89.6337 141.87C89.5388 141.834 89.4372 141.817 89.3355 141.822ZM88.6736 144.683C88.3746 144.79 88.1068 144.969 87.8939 145.205C87.7098 145.405 87.6097 145.669 87.6144 145.941C87.6155 146.079 87.6455 146.217 87.7025 146.343C87.7595 146.47 87.8422 146.583 87.9454 146.676C88.1847 146.891 88.4995 147.002 88.8207 146.985C89.093 146.973 89.3599 146.905 89.6052 146.786C89.8506 146.667 90.0691 146.5 90.2476 146.294L88.6736 144.683ZM90.8801 146.97C90.609 147.265 90.2806 147.501 89.9151 147.664C89.5496 147.827 89.1547 147.914 88.7545 147.919C88.1812 147.94 87.6214 147.743 87.1878 147.367C86.9796 147.185 86.8153 146.958 86.707 146.703C86.5988 146.449 86.5494 146.173 86.5626 145.896C86.5765 145.461 86.7256 145.041 86.9892 144.694C87.2529 144.348 87.6179 144.092 88.0337 143.962C87.8822 143.776 87.7515 143.574 87.6438 143.359C87.5309 143.112 87.4732 142.843 87.4747 142.572C87.4711 142.346 87.5167 142.121 87.6081 141.914C87.6995 141.707 87.8346 141.523 88.0042 141.373C88.367 141.043 88.8452 140.868 89.3355 140.888C89.5612 140.881 89.7858 140.92 89.9966 141C90.2074 141.081 90.4002 141.203 90.5638 141.358C90.7241 141.506 90.8515 141.686 90.9377 141.886C91.0239 142.086 91.0669 142.302 91.064 142.52C91.044 142.924 90.8955 143.311 90.6401 143.625C90.3848 143.938 90.0359 144.162 89.6444 144.264L90.8507 145.492C91.1066 145.085 91.3281 144.656 91.5126 144.212L91.5715 144.08L92.4467 144.477L92.3879 144.617C92.1389 145.158 91.8436 145.678 91.5053 146.169L92.6748 147.397L91.8878 148L90.8801 146.97Z" fill="#D6B580"/>
<path d="M88.9969 143.83C89.8354 143.54 90.2546 143.121 90.2546 142.572C90.2582 142.453 90.2364 142.334 90.1907 142.224C90.1451 142.113 90.0766 142.014 89.9899 141.932C89.9048 141.846 89.8025 141.778 89.6898 141.734C89.5771 141.69 89.4563 141.669 89.3353 141.675C89.2011 141.666 89.0666 141.685 88.9401 141.731C88.8136 141.776 88.6978 141.847 88.5997 141.939C88.5095 142.03 88.4388 142.138 88.392 142.257C88.3452 142.376 88.3233 142.503 88.3276 142.631C88.3258 142.821 88.3739 143.009 88.4674 143.175C88.6121 143.411 88.7823 143.631 88.9749 143.83H88.9969ZM88.7983 147.147C89.1141 147.13 89.4226 147.046 89.703 146.901C89.9835 146.755 90.2293 146.55 90.4238 146.301L88.688 144.514C88.3324 144.632 88.0116 144.837 87.7539 145.109C87.5556 145.335 87.4459 145.625 87.445 145.926C87.4407 146.091 87.4727 146.255 87.5388 146.406C87.6049 146.557 87.7034 146.692 87.8275 146.801C88.0948 147.036 88.4424 147.16 88.7983 147.147ZM91.8875 147.809L90.8725 146.757C90.6115 147.068 90.2866 147.32 89.9199 147.495C89.5532 147.67 89.1532 147.765 88.7469 147.772C88.209 147.793 87.6833 147.609 87.2758 147.257C87.0881 147.093 86.9393 146.889 86.84 146.66C86.7408 146.431 86.6937 146.183 86.7021 145.933C86.7021 145.095 87.2243 144.469 88.2688 144.058C88.0718 143.836 87.906 143.589 87.776 143.322C87.6693 143.092 87.6164 142.84 87.6215 142.587C87.62 142.381 87.6618 142.177 87.7442 141.988C87.8266 141.799 87.9476 141.63 88.0996 141.491C88.4383 141.188 88.8816 141.03 89.3353 141.049C89.5436 141.042 89.7513 141.076 89.946 141.151C90.1406 141.225 90.3182 141.338 90.4679 141.483C90.6119 141.618 90.7262 141.781 90.8035 141.962C90.8808 142.143 90.9193 142.338 90.9166 142.535C90.9166 143.271 90.4017 143.866 89.3867 144.219L90.8578 145.735C91.1634 145.27 91.4245 144.777 91.6374 144.264L92.2405 144.543C91.9841 145.118 91.6686 145.666 91.2991 146.176L92.4318 147.338L91.8875 147.809Z" fill="#D6B580"/>
<path d="M102.736 147.868L101.059 142.91L99.375 147.868H98.5512L96.1313 141.035H97.242L98.9851 146.132L100.669 141.02H101.479L103.163 146.132L104.906 141.035H105.987L103.567 147.868H102.736Z" fill="#D6B580"/>
<path d="M98.6543 147.721L96.3374 141.182H97.1318L98.9926 146.595L100.773 141.167H101.376L103.156 146.595L105.016 141.182H105.781L103.465 147.721H102.839L101.059 142.454L99.2721 147.721H98.6543Z" fill="#D6B580"/>
<path d="M107.149 147.823V141.035H112.136V141.998H108.172V143.925H111.717V144.881H108.172V146.86H112.18V147.823H107.149Z" fill="#D6B580"/>
<path d="M107.297 147.676V141.182H111.989V141.851H108.025V144.065H111.57V144.734H108.025V147.007H112.034V147.676H107.297Z" fill="#D6B580"/>
<path d="M113.548 147.823V141.035H114.578V146.853H118.234V147.823H113.548Z" fill="#D6B580"/>
<path d="M113.696 147.676V141.182H114.431V147H118.087V147.676H113.696Z" fill="#D6B580"/>
<path d="M119.477 147.823V141.035H120.506V146.853H124.162V147.823H119.477Z" fill="#D6B580"/>
<path d="M119.624 147.676V141.182H120.359V147H124.015V147.676H119.624Z" fill="#D6B580"/>
<path d="M130.392 147.823L126.412 142.771V147.823H125.405V141.035H126.309L130.186 145.97V141.035H131.193V147.823H130.392Z" fill="#D6B580"/>
<path d="M125.552 147.676V141.182H126.244L130.333 146.389V141.182H131.047V147.676H130.465L126.266 142.351V147.676H125.552Z" fill="#D6B580"/>
<path d="M132.922 147.823V141.035H137.909V141.998H133.952V143.925H137.489V144.881H133.952V146.86H137.953V147.823H132.922Z" fill="#D6B580"/>
<path d="M133.069 147.676V141.182H137.761V141.851H133.804V144.065H137.349V144.734H133.804V147.007H137.813V147.676H133.069Z" fill="#D6B580"/>
<path d="M141.697 147.919C140.676 147.921 139.692 147.534 138.946 146.838L138.843 146.742L139.483 146.007L139.6 146.11C139.896 146.385 140.234 146.611 140.601 146.779C140.958 146.923 141.341 146.993 141.726 146.985C142.068 147.006 142.406 146.907 142.682 146.706C142.792 146.628 142.882 146.524 142.942 146.403C143.002 146.283 143.032 146.149 143.028 146.014C143.035 145.891 143.012 145.767 142.959 145.656C142.906 145.544 142.826 145.447 142.726 145.374C142.338 145.137 141.905 144.982 141.454 144.918C140.826 144.812 140.231 144.56 139.718 144.183C139.531 144.017 139.383 143.811 139.286 143.581C139.19 143.35 139.146 143.101 139.159 142.851C139.155 142.586 139.212 142.324 139.326 142.084C139.439 141.844 139.606 141.634 139.814 141.469C140.275 141.104 140.852 140.917 141.439 140.939C142.304 140.928 143.145 141.222 143.815 141.77L143.925 141.858L143.322 142.653L143.204 142.557C142.705 142.133 142.073 141.896 141.417 141.888C141.091 141.871 140.769 141.967 140.505 142.16C140.404 142.235 140.322 142.332 140.265 142.445C140.209 142.557 140.18 142.682 140.181 142.807C140.173 142.933 140.198 143.058 140.252 143.171C140.306 143.284 140.388 143.382 140.49 143.455C140.903 143.695 141.357 143.854 141.829 143.925C142.439 144.03 143.015 144.283 143.506 144.661C143.689 144.821 143.834 145.021 143.93 145.245C144.025 145.469 144.069 145.712 144.058 145.955C144.072 146.236 144.018 146.516 143.902 146.772C143.786 147.028 143.609 147.253 143.388 147.426C142.906 147.801 142.307 147.994 141.697 147.971" fill="#D6B580"/>
<path d="M141.697 147.772C140.71 147.777 139.76 147.403 139.042 146.728L139.498 146.191C139.801 146.494 140.154 146.742 140.542 146.926C140.918 147.078 141.321 147.153 141.726 147.147C142.099 147.165 142.468 147.056 142.771 146.838C142.899 146.746 143.002 146.624 143.073 146.483C143.143 146.342 143.178 146.186 143.175 146.029C143.176 145.887 143.145 145.748 143.084 145.62C143.023 145.493 142.933 145.381 142.822 145.293C142.414 145.043 141.958 144.88 141.483 144.815C140.883 144.718 140.312 144.487 139.814 144.139C139.642 143.987 139.507 143.798 139.419 143.587C139.331 143.375 139.293 143.146 139.306 142.918C139.302 142.674 139.354 142.433 139.459 142.214C139.563 141.994 139.718 141.802 139.909 141.652C140.342 141.305 140.885 141.128 141.439 141.152C142.269 141.142 143.076 141.423 143.719 141.947L143.293 142.513C142.776 142.051 142.11 141.79 141.417 141.778C141.059 141.762 140.707 141.869 140.417 142.079C140.301 142.164 140.207 142.275 140.14 142.402C140.074 142.53 140.038 142.671 140.034 142.815C140.034 142.957 140.068 143.098 140.132 143.226C140.195 143.353 140.288 143.464 140.402 143.55C140.833 143.802 141.307 143.972 141.8 144.05C142.382 144.144 142.933 144.373 143.41 144.72C143.579 144.866 143.713 145.048 143.801 145.253C143.889 145.458 143.929 145.681 143.918 145.904C143.925 146.159 143.872 146.412 143.763 146.643C143.654 146.875 143.493 147.077 143.293 147.235C142.837 147.587 142.272 147.767 141.697 147.743" fill="#D6B580"/>
<path d="M147.838 147.919C146.817 147.921 145.834 147.534 145.087 146.838L144.977 146.742L145.624 146.007L145.735 146.11C146.03 146.385 146.368 146.611 146.735 146.779C147.095 146.922 147.48 146.992 147.868 146.985C148.209 147.006 148.547 146.907 148.824 146.706C148.932 146.627 149.02 146.522 149.079 146.402C149.138 146.281 149.166 146.148 149.162 146.014C149.17 145.891 149.148 145.768 149.097 145.657C149.045 145.545 148.967 145.448 148.868 145.374C148.479 145.137 148.046 144.982 147.595 144.918C146.967 144.812 146.373 144.56 145.86 144.183C145.67 144.018 145.521 143.813 145.423 143.583C145.324 143.352 145.28 143.102 145.293 142.851C145.289 142.585 145.347 142.322 145.462 142.082C145.577 141.842 145.746 141.632 145.955 141.469C146.415 141.105 146.988 140.918 147.573 140.939C148.438 140.928 149.28 141.222 149.949 141.77L150.059 141.858L149.456 142.653L149.339 142.557C148.842 142.133 148.212 141.896 147.559 141.888C147.232 141.87 146.91 141.966 146.647 142.16C146.549 142.237 146.47 142.335 146.415 142.448C146.361 142.56 146.332 142.683 146.332 142.807C146.332 142.932 146.361 143.055 146.415 143.167C146.47 143.279 146.549 143.377 146.647 143.455C147.058 143.697 147.513 143.857 147.985 143.925C148.594 144.03 149.167 144.283 149.655 144.661C149.841 144.82 149.987 145.019 150.084 145.243C150.181 145.468 150.225 145.711 150.214 145.955C150.227 146.237 150.172 146.517 150.054 146.773C149.936 147.029 149.759 147.253 149.537 147.426C149.058 147.801 148.461 147.994 147.853 147.971" fill="#D6B580"/>
<path d="M147.838 147.772C146.851 147.779 145.9 147.405 145.183 146.728L145.639 146.191C145.941 146.495 146.295 146.744 146.683 146.926C147.059 147.079 147.462 147.154 147.867 147.147C148.24 147.164 148.608 147.055 148.912 146.838C149.038 146.745 149.14 146.623 149.209 146.482C149.278 146.341 149.312 146.186 149.309 146.029C149.31 145.887 149.279 145.748 149.218 145.62C149.156 145.493 149.067 145.381 148.956 145.293C148.55 145.043 148.097 144.88 147.624 144.815C147.024 144.718 146.453 144.487 145.955 144.139C145.78 143.989 145.642 143.801 145.552 143.589C145.463 143.377 145.424 143.147 145.44 142.918C145.437 142.675 145.49 142.434 145.595 142.215C145.699 141.996 145.853 141.803 146.043 141.653C146.476 141.307 147.019 141.129 147.573 141.152C148.405 141.142 149.214 141.423 149.86 141.947L149.434 142.513C148.917 142.051 148.251 141.791 147.558 141.778C147.2 141.761 146.847 141.868 146.558 142.079C146.442 142.17 146.348 142.286 146.283 142.419C146.219 142.551 146.185 142.697 146.185 142.844C146.185 142.992 146.219 143.137 146.283 143.27C146.348 143.402 146.442 143.518 146.558 143.609C146.988 143.862 147.462 144.032 147.955 144.109C148.536 144.201 149.086 144.43 149.559 144.778C149.728 144.924 149.861 145.107 149.949 145.312C150.037 145.517 150.077 145.74 150.066 145.963C150.074 146.217 150.023 146.47 149.915 146.702C149.808 146.933 149.648 147.136 149.449 147.294C148.992 147.645 148.428 147.824 147.853 147.801" fill="#D6B580"/>
<path d="M157.4 144.352C157.799 144.368 158.192 144.252 158.518 144.021C158.652 143.917 158.758 143.783 158.829 143.629C158.899 143.476 158.931 143.307 158.922 143.138C158.93 142.98 158.899 142.823 158.833 142.679C158.766 142.536 158.665 142.411 158.54 142.314C158.207 142.089 157.809 141.98 157.407 142.006H155.554V144.352H157.4ZM159.069 147.823L157.187 145.301H155.554V147.838H154.524V141.049H157.466C157.821 141.029 158.176 141.08 158.51 141.199C158.845 141.317 159.153 141.502 159.415 141.741C159.596 141.926 159.737 142.146 159.831 142.388C159.924 142.629 159.968 142.887 159.959 143.146C159.969 143.398 159.927 143.649 159.836 143.884C159.745 144.12 159.607 144.334 159.43 144.514C159.118 144.818 158.729 145.031 158.305 145.132L160.342 147.838L159.069 147.823Z" fill="#D6B580"/>
<path d="M155.421 144.492H157.4C157.831 144.512 158.256 144.385 158.606 144.131C158.757 144.015 158.879 143.864 158.959 143.692C159.04 143.519 159.078 143.329 159.069 143.138C159.077 142.957 159.041 142.777 158.964 142.614C158.887 142.45 158.772 142.307 158.628 142.197C158.269 141.954 157.84 141.835 157.407 141.858H155.406L155.421 144.492ZM154.686 147.676V141.219H157.481C157.816 141.199 158.152 141.245 158.469 141.357C158.786 141.468 159.077 141.641 159.327 141.866C159.493 142.038 159.623 142.242 159.709 142.466C159.795 142.69 159.835 142.928 159.827 143.168C159.837 143.401 159.799 143.633 159.715 143.85C159.632 144.068 159.504 144.266 159.341 144.433C158.99 144.769 158.543 144.988 158.062 145.058L160.062 147.713H159.157L157.275 145.19H155.421V147.713L154.686 147.676Z" fill="#D6B580"/>
<path d="M161.438 147.823V141.035H166.417V141.998H162.46V143.925H166.005V144.881H162.46V146.86H166.468V147.823H161.438Z" fill="#D6B580"/>
<path d="M161.577 147.676V141.182H166.277V141.851H162.313V144.065H165.858V144.734H162.313V147.007H166.321V147.676H161.577Z" fill="#D6B580"/>
<path d="M170.213 147.919C169.192 147.921 168.208 147.534 167.462 146.838L167.352 146.742L167.999 146.007L168.109 146.11C168.405 146.385 168.742 146.611 169.109 146.779C169.467 146.923 169.85 146.993 170.235 146.985C170.578 147.004 170.918 146.905 171.198 146.706C171.307 146.627 171.394 146.522 171.453 146.402C171.512 146.281 171.541 146.148 171.537 146.014C171.545 145.891 171.523 145.768 171.471 145.657C171.42 145.545 171.341 145.448 171.242 145.374C170.851 145.137 170.416 144.982 169.963 144.918C169.337 144.813 168.744 144.561 168.234 144.183C168.045 144.019 167.895 143.813 167.797 143.583C167.699 143.352 167.655 143.102 167.668 142.851C167.664 142.586 167.721 142.324 167.835 142.084C167.948 141.844 168.115 141.634 168.322 141.469C168.785 141.106 169.361 140.918 169.948 140.939C170.813 140.928 171.654 141.222 172.324 141.77L172.434 141.858L171.831 142.653L171.713 142.557C171.216 142.133 170.587 141.896 169.933 141.888C169.607 141.87 169.284 141.966 169.021 142.16C168.916 142.231 168.831 142.328 168.774 142.441C168.718 142.555 168.691 142.681 168.698 142.807C168.69 142.933 168.714 143.058 168.768 143.171C168.822 143.284 168.904 143.382 169.006 143.455C169.418 143.697 169.873 143.857 170.345 143.925C170.953 144.032 171.526 144.284 172.015 144.661C172.199 144.821 172.345 145.02 172.442 145.244C172.539 145.468 172.584 145.711 172.574 145.955C172.586 146.237 172.532 146.517 172.414 146.773C172.296 147.029 172.119 147.253 171.897 147.426C171.417 147.8 170.821 147.993 170.213 147.971" fill="#D6B580"/>
<path d="M170.212 147.772C169.226 147.779 168.275 147.404 167.557 146.728L168.013 146.191C168.314 146.493 168.665 146.742 169.05 146.926C169.426 147.077 169.829 147.152 170.234 147.147C170.61 147.165 170.98 147.056 171.286 146.838C171.412 146.745 171.514 146.623 171.584 146.482C171.653 146.341 171.687 146.186 171.683 146.029C171.685 145.887 171.653 145.748 171.592 145.62C171.531 145.493 171.441 145.381 171.33 145.293C170.925 145.043 170.471 144.88 169.999 144.815C169.396 144.718 168.823 144.487 168.322 144.139C168.15 143.987 168.015 143.798 167.927 143.587C167.839 143.375 167.801 143.146 167.815 142.918C167.81 142.674 167.862 142.433 167.967 142.214C168.071 141.994 168.226 141.802 168.418 141.653C168.851 141.307 169.394 141.129 169.948 141.152C170.779 141.142 171.589 141.423 172.235 141.947L171.801 142.513C171.286 142.053 170.623 141.792 169.933 141.778C169.573 141.761 169.217 141.868 168.925 142.079C168.81 142.165 168.717 142.276 168.652 142.403C168.587 142.531 168.552 142.671 168.55 142.815C168.549 142.958 168.582 143.099 168.646 143.227C168.709 143.354 168.803 143.465 168.918 143.55C169.346 143.802 169.817 143.972 170.308 144.05C170.89 144.144 171.442 144.373 171.919 144.72C172.088 144.866 172.221 145.048 172.309 145.253C172.397 145.458 172.437 145.681 172.426 145.904C172.435 146.159 172.382 146.413 172.274 146.645C172.165 146.876 172.003 147.078 171.801 147.235C171.348 147.587 170.785 147.767 170.212 147.743" fill="#D6B580"/>
<path d="M177.119 141.895C176.797 141.885 176.477 141.946 176.181 142.073C175.885 142.2 175.62 142.39 175.405 142.631C174.967 143.13 174.725 143.772 174.725 144.436C174.725 145.101 174.967 145.743 175.405 146.242C175.623 146.482 175.891 146.672 176.189 146.799C176.487 146.926 176.81 146.987 177.134 146.978C177.456 146.988 177.776 146.927 178.072 146.8C178.368 146.673 178.633 146.482 178.848 146.242C179.29 145.746 179.535 145.105 179.535 144.44C179.535 143.775 179.29 143.134 178.848 142.638C178.631 142.396 178.364 142.204 178.065 142.077C177.767 141.95 177.444 141.89 177.119 141.903V141.895ZM177.119 147.941C176.657 147.954 176.197 147.87 175.769 147.692C175.342 147.515 174.957 147.249 174.64 146.911C174.014 146.241 173.665 145.358 173.665 144.44C173.665 143.522 174.014 142.639 174.64 141.969C174.966 141.641 175.354 141.382 175.78 141.204C176.207 141.027 176.664 140.936 177.126 140.936C177.588 140.936 178.046 141.027 178.472 141.204C178.899 141.382 179.286 141.641 179.612 141.969C180.238 142.641 180.586 143.525 180.586 144.444C180.586 145.362 180.238 146.246 179.612 146.919C179.293 147.256 178.905 147.522 178.476 147.7C178.046 147.877 177.584 147.962 177.119 147.948" fill="#D6B580"/>
<path d="M175.31 146.367C175.547 146.616 175.832 146.815 176.148 146.95C176.464 147.086 176.805 147.156 177.148 147.156C177.492 147.156 177.833 147.086 178.149 146.95C178.465 146.815 178.75 146.616 178.987 146.367C179.452 145.841 179.709 145.164 179.709 144.462C179.709 143.76 179.452 143.083 178.987 142.557C178.75 142.308 178.465 142.11 178.149 141.974C177.833 141.838 177.492 141.768 177.148 141.768C176.805 141.768 176.464 141.838 176.148 141.974C175.832 142.11 175.547 142.308 175.31 142.557C174.824 143.074 174.56 143.76 174.574 144.47C174.56 145.174 174.824 145.856 175.31 146.367ZM179.502 146.838C179.197 147.161 178.827 147.415 178.416 147.585C178.005 147.755 177.563 147.836 177.119 147.823C176.676 147.838 176.236 147.758 175.826 147.59C175.416 147.421 175.047 147.167 174.743 146.845C174.143 146.2 173.809 145.351 173.809 144.47C173.809 143.588 174.143 142.739 174.743 142.094C175.056 141.781 175.426 141.533 175.835 141.363C176.243 141.194 176.681 141.107 177.123 141.107C177.565 141.107 178.002 141.194 178.411 141.363C178.819 141.533 179.19 141.781 179.502 142.094C180.102 142.738 180.436 143.585 180.436 144.466C180.436 145.346 180.102 146.194 179.502 146.838Z" fill="#D6B580"/>
<path d="M184.908 144.352C185.305 144.367 185.695 144.251 186.019 144.021C186.154 143.919 186.263 143.785 186.335 143.631C186.407 143.477 186.439 143.308 186.431 143.138C186.438 142.98 186.407 142.823 186.341 142.679C186.274 142.536 186.174 142.411 186.048 142.314C185.715 142.089 185.317 141.98 184.915 142.006H183.055V144.352H184.908ZM186.578 147.823L184.695 145.301H183.055V147.838H182.032V141.049H184.974C185.33 141.029 185.686 141.079 186.022 141.198C186.358 141.317 186.667 141.501 186.931 141.741C187.111 141.927 187.251 142.147 187.343 142.388C187.435 142.63 187.478 142.887 187.468 143.146C187.477 143.397 187.435 143.648 187.346 143.883C187.256 144.118 187.12 144.332 186.945 144.514C186.631 144.818 186.239 145.032 185.813 145.132L187.85 147.838L186.578 147.823Z" fill="#D6B580"/>
<path d="M182.907 144.492H184.908C185.326 144.514 185.74 144.398 186.085 144.161C186.236 144.045 186.358 143.894 186.438 143.721C186.519 143.548 186.557 143.358 186.548 143.168C186.556 142.987 186.52 142.807 186.443 142.643C186.366 142.479 186.251 142.336 186.107 142.226C185.748 141.984 185.319 141.865 184.886 141.888H182.878L182.907 144.492ZM182.172 147.676V141.219H184.967C185.302 141.199 185.638 141.245 185.955 141.357C186.272 141.468 186.564 141.641 186.813 141.866C186.979 142.038 187.109 142.242 187.195 142.466C187.281 142.69 187.321 142.928 187.313 143.168C187.323 143.401 187.285 143.633 187.201 143.85C187.118 144.068 186.991 144.266 186.828 144.433C186.475 144.766 186.028 144.984 185.548 145.058L187.541 147.713H186.644L184.761 145.19H182.9V147.713L182.172 147.676Z" fill="#D6B580"/>
<path d="M190.638 147.823V142.006H188.46V141.035H193.852V142.006H191.675V147.823H190.638Z" fill="#D6B580"/>
<path d="M190.785 147.676V141.858H188.607V141.182H193.712V141.858H191.527V147.676H190.785Z" fill="#D6B580"/>
<path d="M221.757 109.922L222.699 106.811C223.155 105.285 223.521 103.732 223.795 102.163C223.993 102.972 224.207 103.774 224.435 104.583L221.757 109.922ZM227.156 104.642L229.782 99.3017H227.068L226.06 101.317L225.391 99.3017H222.346L214.446 124.574H217.425L225.479 108.054C227.193 113.541 228.84 119.087 230.576 124.545H233.761L227.156 104.642Z" fill="#D6B580"/>
<path d="M154.377 117.638C153.987 118.933 153.641 120.249 153.318 121.573C153.149 120.838 152.965 120.102 152.766 119.366L155.524 113.843L154.377 117.638ZM159.805 99.2943L151.759 115.807L146.948 99.2943H143.918L150.14 119.087L147.448 124.567H150.162L151.214 122.47L151.869 124.567H154.752L162.754 99.3532L162.791 99.2943H159.805Z" fill="#D6B580"/>
<path d="M10.4664 117.638C10.0765 118.933 9.73084 120.249 9.39986 121.573C9.23069 120.838 9.04681 120.102 8.85558 119.367L11.6138 113.843L10.4664 117.638ZM15.8871 99.2943L7.84057 115.814L3.03031 99.2943H0L6.22244 119.087L3.53046 124.574H6.24451L7.29629 122.478L7.9509 124.574H10.8341L18.8438 99.3605V99.3017L15.8871 99.2943Z" fill="#D6B580"/>
<path d="M50.581 116.042V102.17H57.0241C57.6205 102.123 58.2201 102.2 58.7857 102.395C59.3513 102.59 59.8708 102.899 60.3118 103.303C61.0244 104.113 61.3961 105.167 61.3489 106.245C61.3611 106.891 61.2278 107.532 60.9591 108.12C60.5647 108.884 59.9857 109.536 59.2748 110.018L50.581 116.042ZM61.3195 118.366C60.7076 117.159 59.9519 116.03 59.0688 115.005C58.8014 114.729 58.5055 114.483 58.1862 114.269L59.2527 113.534C59.7161 113.218 60.1794 112.894 60.6281 112.563C61.0768 112.232 61.5401 111.886 61.9667 111.519C62.158 111.357 62.3492 111.188 62.5257 111.011C62.677 110.862 62.8171 110.702 62.945 110.533C63.2692 110.118 63.5386 109.663 63.7467 109.18C64.1062 108.242 64.2762 107.242 64.2468 106.238C64.264 104.918 63.9718 103.613 63.3936 102.428C62.9237 101.387 62.1147 100.536 61.0988 100.015C60.5376 99.7628 59.9432 99.5919 59.3336 99.5076C58.5307 99.3825 57.7189 99.3235 56.9064 99.3311H47.8081V124.603H50.6104V119.521L56.1415 115.696C56.3624 115.982 56.5686 116.279 56.7593 116.586C57.0682 117.064 57.3551 117.557 57.6346 118.057C58.0097 118.719 58.3701 119.389 58.7084 120.058L61.0621 124.611H64.5557L61.3195 118.366Z" fill="#D6B580"/>
<path d="M178.2 115.696V124.574H175.39V115.696L167.461 99.3017H170.823L177.045 112.71L183.157 99.3017H186.423L178.2 115.696Z" fill="#D6B580"/>
<path d="M28.5084 102.347V109.996H39.8206V113.034H28.5084V121.536H41.0857V124.574H25.6987V99.3017H40.6002V102.347H28.5084Z" fill="#D6B580"/>
<path d="M74.0294 111.71L84.1574 99.3017H87.9453L79.303 109.562L88.3057 124.574H84.6207L77.3392 111.894L74.0294 115.821V124.574H71.2271V99.3017H74.0294V111.71Z" fill="#D6B580"/>
<path d="M98.2574 109.68H108.768V99.3017H111.57V124.574H108.768V112.717H98.2574V124.574H95.4478V99.3017H98.2574V109.68Z" fill="#D6B580"/>
<path d="M134.488 119.44C133.93 120.244 133.185 120.901 132.317 121.355C131.449 121.808 130.484 122.045 129.505 122.045C128.526 122.045 127.561 121.808 126.694 121.355C125.826 120.901 125.081 120.244 124.522 119.44C122.985 117.417 122.536 114.784 122.536 112.313C122.536 109.724 122.852 106.289 124.603 104.222C125.189 103.475 125.937 102.869 126.791 102.452C127.644 102.034 128.581 101.814 129.531 101.81C130.845 101.81 132.122 102.25 133.157 103.06C134.29 103.984 135.141 105.207 135.614 106.591C136.21 108.309 136.497 110.119 136.459 111.938C136.459 114.475 136.055 117.314 134.488 119.403V119.44ZM138.166 105.178C137.471 103.324 136.262 101.706 134.68 100.515C133.191 99.4123 131.383 98.826 129.531 98.8456C128.146 98.8198 126.775 99.1293 125.535 99.7479C124.295 100.367 123.224 101.276 122.411 102.398C120.271 105.171 119.66 108.819 119.66 112.239C119.65 114.391 120.046 116.524 120.83 118.528C121.53 120.39 122.735 122.02 124.309 123.235C125.802 124.372 127.632 124.981 129.509 124.964C131.299 124.961 133.046 124.415 134.518 123.397C136.143 122.259 137.391 120.661 138.1 118.807C138.974 116.627 139.404 114.294 139.365 111.945C139.401 109.633 138.991 107.336 138.159 105.178" fill="#D6B580"/>
<path d="M205.708 118.947V99.3017H208.4V124.574H205.539L194.852 104.936V124.574H192.16V99.3017H195.014L205.708 118.947Z" fill="#D6B580"/>
</g>
<defs>
<clipPath id="clip0">
<rect width="233.768" height="148" fill="white"/>
</clipPath>
</defs>
</svg>
