<svg width="225" height="88" viewBox="0 0 225 88" fill="none" xmlns="http://www.w3.org/2000/svg">
<g clip-path="url(#clip0)">
<path d="M23.4 40.3L26.1 64.7H23.6L21.2 43.9001L13.5 55.7001H12.2L4.7 44L2.5 64.7H0L2.5 40.3H5.2L13 52.1L20.7 40.3H23.4Z" fill="#42474C"/>
<path d="M32.6992 40.3H43.2992V42.5H35.2992V50.7001H42.1992V52.7001H35.2992V62.5H43.2992V64.7H32.6992V40.3Z" fill="#42474C"/>
<path d="M56.6 40.3C59.2 40.3 61.4 40.8 63.4 41.8C65.3 42.8 66.8 44.2 67.8 46C68.8 47.8 69.3 49.9 69.3 52.3C69.3 54.8 68.8 57.0001 67.7 58.9001C66.7 60.8001 65.2 62.2001 63.3 63.2001C61.4 64.2001 59.2 64.7 56.7 64.7H49V40.3H56.6ZM56.6 62.5C58.7 62.5 60.5 62.1 62 61.3C63.5 60.5 64.7 59.4001 65.5 57.9001C66.3 56.4001 66.7 54.7001 66.7 52.7001C66.7 50.6 66.3 48.8 65.4 47.3C64.6 45.8 63.4 44.6 61.8 43.8C60.2 43 58.4 42.6 56.3 42.6H51.5V62.6H56.6V62.5Z" fill="#42474C"/>
<path d="M77.6 40.3V64.7H75V40.3H77.6Z" fill="#42474C"/>
<path d="M101.5 64C100.8 64.4 99.8996 64.7 98.8996 64.9C97.8996 65.1 96.8996 65.2 95.9996 65.2C93.3996 65.2 91.0996 64.7 89.1996 63.6C87.2996 62.5 85.7996 61 84.6996 59.1C83.6996 57.2 83.0996 54.9 83.0996 52.3C83.0996 49.8 83.5996 47.5 84.6996 45.6C85.7996 43.7 87.2996 42.2 89.2996 41.2C91.2996 40.2 93.5996 39.6 96.2996 39.6C97.0996 39.6 97.9996 39.7 98.9996 39.9C99.9996 40.1 100.9 40.3 101.7 40.7V43.1C99.7996 42.3 98.0996 41.8 96.5996 41.8C94.3996 41.8 92.4996 42.2 90.8996 43.1C89.2996 43.9 87.9996 45.1 87.1996 46.7C86.2996 48.3 85.8996 50.1 85.8996 52.3C85.8996 54.4 86.2996 56.2 87.1996 57.8C88.0996 59.4 89.2996 60.6 90.7996 61.5C92.3996 62.4 94.1996 62.8 96.2996 62.8C97.1996 62.8 98.0996 62.7 98.9996 62.4C99.8996 62.2 100.8 61.9 101.6 61.5L101.5 64Z" fill="#42474C"/>
<path d="M121.101 55H112.801L109.101 64.7H106.301L116.001 40.3H118.401L127.401 64.7H124.501L121.101 55ZM120.301 52.8L117.101 43.5L113.601 52.8H120.301Z" fill="#42474C"/>
<path d="M135.6 40.3V62.5H143.6V64.7H133V40.3H135.6Z" fill="#42474C"/>
<path d="M146.3 18.3C145.4 18.8 144.7 19.5 144.1 20.3C143.7 20.9 143.5 21.6 143.3 22.3C143.2 23.1 143.3 23.8 143.6 24.6C143.9 25.4 144.5 26.1 145.5 26.7C146.2 27.2 147 27.5 147.8 27.6C148.6 27.7 149.4 27.6 150.1 27.2C150.8 26.9 151.4 26.3 151.9 25.6C152.4 24.9 152.7 24.1 152.8 23.4L149.9 21.5L148.9 23L148.1 22.5L149.7 20.1L153.9 22.9C153.8 23.4 153.7 24 153.5 24.5C153.3 25 153.1 25.5 152.7 26.1C152.1 27 151.3 27.8 150.4 28.2C149.5 28.7 148.6 28.9 147.5 28.8C146.5 28.7 145.5 28.4 144.5 27.7C143.5 27 142.8 26.3 142.4 25.3C142 24.4 141.8 23.4 141.9 22.4C142 21.4 142.4 20.4 143 19.5C143.5 18.7 144.2 18.1 145 17.5L146.3 18.3Z" fill="#42474C"/>
<path d="M161.6 11.9L158.5 13.9L159.5 18.5L158.4 19.2L156 7.6L156.9 7L166.3 14L165.2 14.7L161.6 11.9ZM160.8 11.3L157.3 8.6L158.2 13L160.8 11.3Z" fill="#42474C"/>
<path d="M170.901 1.20001L173.001 11L176.501 10.2L176.701 11.2L172.001 12.2L169.701 1.40001L170.901 1.20001Z" fill="#42474C"/>
<path d="M185.101 0.100024L184.101 10.1L187.701 10.4L187.601 11.4L182.801 10.9L183.801 -0.0999756L185.101 0.100024Z" fill="#42474C"/>
<path d="M197.801 2.90002L202.201 4.80002L201.801 5.70002L198.501 4.30002L197.001 7.70002L199.901 8.90002L199.501 9.70002L196.601 8.50002L194.801 12.6L198.101 14L197.701 14.9L193.301 13L197.801 2.90002Z" fill="#42474C"/>
<path d="M209.001 15C209.501 15.5 210.001 15.7 210.601 15.8C211.201 15.9 211.701 15.7 212.001 15.3C212.301 14.9 212.501 14.5 212.401 14C212.301 13.5 212.101 13.1 211.701 12.7L210.601 11.7L203.701 19.1L202.801 18.3L210.301 10.2L212.401 12.1C213.001 12.7 213.401 13.3 213.501 14.1C213.601 14.8 213.401 15.5 212.901 16C212.501 16.5 211.901 16.7 211.201 16.7C210.501 16.7 209.901 16.5 209.301 16.1C209.601 16.6 209.801 17.2 209.801 17.8C209.801 18.4 209.701 19.1 209.401 19.9L208.101 23.2L207.201 22.4L208.401 19.2C208.701 18.5 208.701 17.8 208.601 17.1C208.501 16.4 208.201 15.9 207.801 15.4L208.401 14.8L209.001 15Z" fill="#42474C"/>
<path d="M216.601 27.3L220.401 21.1L221.001 22.3L217.901 27.2L223.701 27.6L224.301 28.8L217.101 28.3L212.801 30.5L212.301 29.4L216.601 27.3Z" fill="#42474C"/>
<path d="M181.9 59.7L167.9 27.5L156 49.3H148V48.2H155.4L168 25.1L182.1 57.4L194.1 37.9L199.8 47.8H214.6V48.9H199.2L194 39.9L181.9 59.7Z" fill="#42474C"/>
<path d="M180.9 88C171.3 88 162 83.9 155.5 76.7L156.3 76C162.6 83 171.5 87 180.9 87C199.2 87 214 72.1 214 53.9C214 52.1 213.8 50.2 213.5 48.4L214.5 48.2C214.8 50.1 215 52 215 53.9C215 72.7 199.7 88 180.9 88Z" fill="#42474C"/>
<path d="M182.9 37.6C180.5 37.6 178.5 35.6 178.5 33.2C178.5 31 182 25.9 182.5 25.3L182.9 24.7L183.3 25.3C183.7 25.9 187.3 31 187.3 33.2C187.2 35.6 185.3 37.6 182.9 37.6ZM182.9 26.5C181.7 28.3 179.6 31.7 179.6 33.2C179.6 35 181.1 36.5 182.9 36.5C184.7 36.5 186.2 35 186.2 33.2C186.2 31.8 184.1 28.3 182.9 26.5Z" fill="#42474C"/>
</g>
<defs>
<clipPath id="clip0">
<rect width="224.4" height="88" fill="white"/>
</clipPath>
</defs>
</svg>
