<svg width="28" height="23" viewBox="0 0 28 23" fill="none" xmlns="http://www.w3.org/2000/svg">
<path fill-rule="evenodd" clip-rule="evenodd" d="M8.19648 1.5C5.82166 1.5 3.89648 3.42518 3.89648 5.8C3.89648 8.17482 5.82166 10.1 8.19648 10.1C10.5713 10.1 12.4965 8.17482 12.4965 5.8C12.4965 3.42518 10.5713 1.5 8.19648 1.5ZM2.89648 5.8C2.89648 2.87289 5.26938 0.5 8.19648 0.5C11.1236 0.5 13.4965 2.87289 13.4965 5.8C13.4965 8.72711 11.1236 11.1 8.19648 11.1C5.26938 11.1 2.89648 8.72711 2.89648 5.8Z" fill="#BA9966"/>
<path fill-rule="evenodd" clip-rule="evenodd" d="M20.1965 1.5C17.8217 1.5 15.8965 3.42518 15.8965 5.8C15.8965 8.17482 17.8217 10.1 20.1965 10.1C22.5713 10.1 24.4965 8.17482 24.4965 5.8C24.4965 3.42518 22.5713 1.5 20.1965 1.5ZM14.8965 5.8C14.8965 2.87289 17.2694 0.5 20.1965 0.5C23.1236 0.5 25.4965 2.87289 25.4965 5.8C25.4965 8.72711 23.1236 11.1 20.1965 11.1C17.2694 11.1 14.8965 8.72711 14.8965 5.8Z" fill="#BA9966"/>
<path fill-rule="evenodd" clip-rule="evenodd" d="M3.37959 16.2494C2.27166 18.1762 1.68659 20.5076 1.49228 22.0622L0.5 21.9381C0.705683 20.2927 1.32062 17.8241 2.51269 15.7509C3.70213 13.6823 5.53586 11.9001 8.19614 11.9001C10.8564 11.9001 12.6901 13.6823 13.8796 15.7509C15.0717 17.8241 15.6866 20.2927 15.8923 21.9381L14.9 22.0622C14.7057 20.5076 14.1206 18.1762 13.0127 16.2494C11.9021 14.318 10.3359 12.9001 8.19614 12.9001C6.05642 12.9001 4.49014 14.318 3.37959 16.2494Z" fill="#BA9966"/>
<path fill-rule="evenodd" clip-rule="evenodd" d="M20.1958 12.9001C18.5024 12.9001 17.176 13.7834 16.1417 15.1079C15.5191 15.9051 15.0126 16.8515 14.612 17.8302L13.6865 17.4513C14.1114 16.4133 14.6598 15.3807 15.3535 14.4924C16.511 13.0102 18.1008 11.9001 20.1958 11.9001C22.8561 11.9001 24.6898 13.6823 25.8792 15.7509C27.0713 17.8241 27.6863 20.2927 27.8919 21.9381L26.8997 22.0622C26.7053 20.5076 26.1203 18.1762 25.0123 16.2494C23.9018 14.318 22.3355 12.9001 20.1958 12.9001Z" fill="#BA9966"/>
</svg>
