<svg width="1475" height="203" viewBox="0 0 1475 203" fill="none" xmlns="http://www.w3.org/2000/svg">
<path d="M89.9902 85.4672L89.9881 85.4668C71.4101 81.0234 59.9914 77.1528 53.2157 72.5602C49.8416 70.2732 47.6381 67.8191 46.272 65.0407C44.9043 62.2591 44.3569 59.1139 44.3569 55.4144C44.3569 48.9096 47.1932 43.1536 52.4812 39.0117C57.7775 34.8634 65.56 32.3163 75.4575 32.3163C93.0604 32.3163 110.421 39.2014 127.826 52.2058L128.237 52.5127L128.533 52.0943L146.828 26.2753L147.1 25.8913L146.734 25.5965C126.965 9.70195 104.402 1.05524 76.0119 1.05524C37.2875 1.05524 9.26155 24.2463 9.26155 57.913C9.26155 76.2247 15.1338 88.5243 26.2537 97.448C37.3326 106.339 53.5776 111.841 74.233 116.7C92.2493 121.003 103.11 125.011 109.467 129.632C112.633 131.933 114.667 134.378 115.916 137.077C117.167 139.779 117.646 142.773 117.646 146.198C117.646 153.668 114.399 159.766 108.566 164.012C102.717 168.27 94.2374 170.684 83.7735 170.684C59.8107 170.684 41.3502 161.59 22.8402 145.542L22.4564 145.209L22.1297 145.598L1.61708 170.029L1.30544 170.4L1.66671 170.724C25.044 191.628 53.1601 201.945 82.9419 201.945C103.4 201.945 120.846 196.509 133.188 186.459C145.541 176.4 152.741 161.749 152.741 143.421C152.741 126.914 147.355 114.9 136.768 105.772C126.211 96.6691 110.523 90.4694 89.9902 85.4672ZM202.926 198.669V199.169H203.426H348.677H349.177V198.669V168.13V167.63H348.677H238.021V116.436H334.818H335.318V115.936V85.3978V84.8978H334.818H238.021V35.3702H347.291H347.791V34.8702V4.33148V3.83148H347.291H203.426H202.926V4.33148V198.669ZM399.715 198.669V199.169H400.215H434.31H434.81V198.669V131.428H476.186L524.269 198.959L524.419 199.169H524.677H564.87H565.84L565.278 198.378L513.296 125.382C526.659 121.445 538.078 114.73 546.196 105.049C554.456 95.1987 559.272 82.3112 559.272 66.2417C559.272 47.3767 552.57 31.7549 540.113 20.8556C527.663 9.96275 509.517 3.83148 486.701 3.83148H400.215H399.715V4.33148V198.669ZM669.778 200.247L669.906 200.557H670.24H700.178H700.512L700.64 200.247L781.305 4.522L781.589 3.83148H780.842H743.975H743.633L743.509 4.14992L685.762 152.319L627.74 4.14917L627.616 3.83148H627.275H589.576H588.829L589.113 4.522L669.778 200.247ZM826.634 198.669V199.169H827.134H861.23H861.73V198.669V4.33148V3.83148H861.23H827.134H826.634V4.33148V198.669ZM1093.43 167.921L1093.77 167.57L1093.43 167.224L1071.53 145.014L1071.19 144.667L1070.83 144.999C1054.25 160.504 1039.12 170.128 1015.46 170.128C978.634 170.128 951.925 139.305 951.925 101.5C951.925 63.1421 978.632 32.8715 1015.46 32.8715C1037.46 32.8715 1053.98 42.503 1069.45 56.891L1069.83 57.2436L1070.17 56.8523L1092.07 31.5885L1092.38 31.2288L1092.03 30.8997C1073.38 13.0589 1051.64 0.5 1015.74 0.5C956.679 0.5 915.167 45.9911 915.167 101.5C915.167 158.121 957.512 202.5 1014.35 202.5C1032.57 202.5 1047.27 199.156 1059.95 193.152C1072.64 187.148 1083.29 178.498 1093.43 167.921ZM1139.5 198.669V199.169H1140H1285.25H1285.75V198.669V168.13V167.63H1285.25H1174.59V116.436H1271.39H1271.89V115.936V85.3978V84.8978H1271.39H1174.59V35.3702H1283.86H1284.36V34.8702V4.33148V3.83148H1283.86H1140H1139.5V4.33148V198.669ZM1411.75 85.4672L1411.75 85.4668C1393.17 81.0234 1381.75 77.1528 1374.97 72.5602C1371.6 70.2732 1369.4 67.8191 1368.03 65.0407C1366.66 62.2591 1366.12 59.1139 1366.12 55.4144C1366.12 48.9096 1368.95 43.1536 1374.24 39.0117C1379.54 34.8634 1387.32 32.3163 1397.22 32.3163C1414.82 32.3163 1432.18 39.2014 1449.58 52.2058L1450 52.5127L1450.29 52.0943L1468.59 26.2753L1468.86 25.8913L1468.49 25.5965C1448.72 9.70195 1426.16 1.05524 1397.77 1.05524C1359.05 1.05524 1331.02 24.2463 1331.02 57.913C1331.02 76.2247 1336.89 88.5243 1348.01 97.448C1359.09 106.339 1375.34 111.841 1395.99 116.701C1414.01 121.004 1424.87 125.012 1431.23 129.632C1434.39 131.933 1436.43 134.378 1437.68 137.077C1438.93 139.779 1439.4 142.773 1439.4 146.198C1439.4 153.668 1436.16 159.766 1430.32 164.012C1424.48 168.27 1416 170.684 1405.53 170.684C1381.57 170.684 1363.11 161.59 1344.6 145.542L1344.22 145.209L1343.89 145.598L1323.38 170.029L1323.06 170.4L1323.43 170.724C1346.8 191.628 1374.92 201.945 1404.7 201.945C1425.16 201.945 1442.6 196.509 1454.95 186.459C1467.3 176.4 1474.5 161.749 1474.5 143.421C1474.5 126.914 1469.11 114.9 1458.53 105.772C1447.97 96.6691 1432.28 90.4694 1411.75 85.4672ZM434.81 100.167V35.9254H483.928C496.475 35.9254 506.398 38.7572 513.175 44.1117C519.934 49.4527 523.622 57.3503 523.622 67.6298C523.622 77.6246 519.8 85.7385 512.993 91.363C506.176 96.996 496.32 100.167 484.206 100.167H434.81Z" stroke="url(#paint0_linear)"/>
<defs>
<linearGradient id="paint0_linear" x1="738" y1="1" x2="738" y2="168" gradientUnits="userSpaceOnUse">
<stop stop-color="#FCF6F0" stop-opacity="0.12"/>
<stop offset="1" stop-color="#FCF6F0" stop-opacity="0"/>
</linearGradient>
</defs>
</svg>
