<svg width="123" height="101" viewBox="0 0 123 101" fill="none" xmlns="http://www.w3.org/2000/svg">
<path d="M0 49.5389H25.9498L34.898 34.8725L49.2151 68.3958L55.9262 48.1421H62.19L68.9011 58.9673L78.2967 1L88.1397 49.5389H95.7457M122.143 49.5389H102.904" stroke="black" stroke-width="2"/>
<path d="M15.0039 37.5064C15.4351 34.2442 17.2602 29.1481 21.3675 25.4142M35.0039 20.6626C32.4433 20.6119 30.18 20.9418 28.1857 21.5502" stroke="black" stroke-width="2"/>
<path fill-rule="evenodd" clip-rule="evenodd" d="M71.6569 16.1145C71.5329 15.6469 71.4567 15.1602 71.4338 14.66C68.4228 16.0673 65.601 17.9958 63.1087 20.4454L59.4594 24.0321L55.7171 20.3539C44.0014 8.83906 25.0064 8.83906 13.2907 20.3539C1.57497 31.8688 1.57497 50.5381 13.2907 62.0529L59.2526 100.909L59.3663 100.797L59.5731 101L105.535 62.1445C117.251 50.6296 117.251 31.9603 105.535 20.4454C99.9107 14.9175 92.6087 12.0434 85.2398 11.823C85.4166 12.2755 85.5471 12.7505 85.6256 13.2424C92.4972 13.549 99.2776 16.281 104.525 21.4383C115.683 32.4048 115.683 50.1851 104.525 61.1516L59.5731 99.0144L59.3663 98.8111L59.2526 98.9228L14.3009 61.0601C3.14302 50.0936 3.14302 32.3133 14.3009 21.3468C25.4587 10.3802 43.5491 10.3802 54.707 21.3468L59.4594 26.0178L64.1188 21.4383C66.3844 19.2116 68.9358 17.437 71.6569 16.1145Z" fill="black"/>
</svg>
