<svg width="22" height="23" viewBox="0 0 22 23" fill="none" xmlns="http://www.w3.org/2000/svg">
<path fill-rule="evenodd" clip-rule="evenodd" d="M2.00488 13.3181C2.28103 13.3181 2.50488 13.542 2.50488 13.8181V18.1818C2.50488 18.4579 2.28103 18.6818 2.00488 18.6818C1.72874 18.6818 1.50488 18.4579 1.50488 18.1818V13.8181C1.50488 13.542 1.72874 13.3181 2.00488 13.3181Z" fill="#BA9966"/>
<path fill-rule="evenodd" clip-rule="evenodd" d="M17.2783 1.31812C17.5545 1.31812 17.7783 1.54197 17.7783 1.81812V5.90902C17.7783 6.18517 17.5545 6.40902 17.2783 6.40902C17.0022 6.40902 16.7783 6.18517 16.7783 5.90902V1.81812C16.7783 1.54197 17.0022 1.31812 17.2783 1.31812Z" fill="#BA9966"/>
<path fill-rule="evenodd" clip-rule="evenodd" d="M18.4872 0.688417C18.6593 0.904377 18.6237 1.21896 18.4078 1.39105L0.953222 15.3001C0.737263 15.4722 0.422684 15.4367 0.250591 15.2207C0.0784978 15.0048 0.114059 14.6902 0.330019 14.5181L17.7846 0.608989C18.0005 0.436896 18.3151 0.472457 18.4872 0.688417Z" fill="#BA9966"/>
<path fill-rule="evenodd" clip-rule="evenodd" d="M5.0055 14.6819C5.28165 14.6819 5.5055 14.9057 5.5055 15.1819V18.6819H1.36914C1.093 18.6819 0.869141 18.458 0.869141 18.1819C0.869141 17.9057 1.093 17.6819 1.36914 17.6819H4.5055V15.1819C4.5055 14.9057 4.72936 14.6819 5.0055 14.6819Z" fill="#BA9966"/>
<path fill-rule="evenodd" clip-rule="evenodd" d="M8.82386 11.6819C9.10001 11.6819 9.32386 11.9057 9.32386 12.1819V15.4092H4.86914C4.593 15.4092 4.36914 15.1853 4.36914 14.9092C4.36914 14.633 4.593 14.4092 4.86914 14.4092H8.32386V12.1819C8.32386 11.9057 8.54772 11.6819 8.82386 11.6819Z" fill="#BA9966"/>
<path fill-rule="evenodd" clip-rule="evenodd" d="M12.6412 8.68188C12.9174 8.68188 13.1412 8.90574 13.1412 9.18188V12.6819H8.36816C8.09202 12.6819 7.86816 12.458 7.86816 12.1819C7.86816 11.9057 8.09202 11.6819 8.36816 11.6819H12.1412V9.18188C12.1412 8.90574 12.3651 8.68188 12.6412 8.68188Z" fill="#BA9966"/>
<path fill-rule="evenodd" clip-rule="evenodd" d="M16.4596 5.40918C16.7357 5.40918 16.9596 5.63304 16.9596 5.90918V9.40918H12.3691C12.093 9.40918 11.8691 9.18532 11.8691 8.90918C11.8691 8.63304 12.093 8.40918 12.3691 8.40918H15.9596V5.90918C15.9596 5.63304 16.1835 5.40918 16.4596 5.40918Z" fill="#BA9966"/>
<path fill-rule="evenodd" clip-rule="evenodd" d="M15.3691 5.90918C15.3691 5.63304 15.593 5.40918 15.8691 5.40918H21.5966V22.5001H0.6875V18.1819C0.6875 17.9058 0.911358 17.6819 1.1875 17.6819C1.46364 17.6819 1.6875 17.9058 1.6875 18.1819V21.5001H20.5966V6.40918H15.8691C15.593 6.40918 15.3691 6.18532 15.3691 5.90918Z" fill="#BA9966"/>
</svg>
