<svg width="20" height="18" viewBox="0 0 20 18" fill="none" xmlns="http://www.w3.org/2000/svg">
<path fill-rule="evenodd" clip-rule="evenodd" d="M4.8915 10.29L0.348248 8.53233C-0.113183 8.35306 -0.117188 7.67782 0.342934 7.49388L18.9886 0.0381853C19.3839 -0.120287 19.7918 0.23869 19.7056 0.66896L16.3596 17.3523C16.2807 17.7462 15.8351 17.9249 15.5207 17.6879L10.9529 14.2505C10.6755 14.0417 10.2974 14.0529 10.0319 14.2771L7.49946 16.4171C7.20547 16.6662 6.76256 16.5274 6.65004 16.152L4.8915 10.29ZM15.2458 3.68599L6.36663 9.3545C6.02632 9.57225 5.86608 9.99821 5.97602 10.3971L6.93605 13.8936C7.00421 14.1414 7.35119 14.116 7.38423 13.86L7.63385 11.9425C7.68091 11.5815 7.84709 11.2489 8.10464 11.0004L15.4326 3.93982C15.5696 3.80805 15.4054 3.5844 15.2458 3.68599Z" fill="#EDDBBF"/>
<path d="M6.36637 9.3546L15.2456 3.68609C15.4052 3.5845 15.5693 3.80816 15.4323 3.93992L8.10438 11.0005C7.84682 11.249 7.68065 11.5816 7.63359 11.9426L7.38397 13.8601C7.35093 14.1161 7.00395 14.1415 6.93579 13.8937L5.97576 10.3972C5.86582 9.99831 6.02606 9.57235 6.36637 9.3546Z" fill="#42474C"/>
</svg>
