<svg width="24" height="18" viewBox="0 0 24 18" fill="none" xmlns="http://www.w3.org/2000/svg">
<path fill-rule="evenodd" clip-rule="evenodd" d="M22.8 1.35C23.5034 2.12725 23.7517 3.88636 23.7517 3.88636C23.7517 3.88636 24 5.97274 24 8.05907V9.98181C24 12.0273 23.7517 14.1136 23.7517 14.1136C23.7517 14.1136 23.5035 15.8727 22.8 16.65C21.9343 17.5837 20.9562 17.6665 20.471 17.7075C20.446 17.7096 20.4223 17.7116 20.4 17.7137C17.0483 18 12 18 12 18C12 18 5.7517 17.9591 3.8483 17.7546C3.74715 17.7315 3.6226 17.7142 3.48097 17.6946C2.86934 17.6096 1.93919 17.4805 1.2 16.65C0.496594 15.8728 0.248297 14.1137 0.248297 14.1137C0.248297 14.1137 0 12.0682 0 9.98185V8.05911C0 5.97274 0.248297 3.88636 0.248297 3.88636C0.248297 3.88636 0.455156 2.1273 1.2 1.35C2.06575 0.416303 3.04375 0.33354 3.52899 0.292476C3.554 0.29036 3.57769 0.288354 3.6 0.286349C6.9517 0.0409202 12 0 12 0C12 0 17.0483 0.0409202 20.4 0.286349C20.4346 0.289456 20.4725 0.292327 20.5134 0.295428C21.0115 0.333166 21.9588 0.404924 22.8 1.35ZM9.10345 13.7455V4.86817L16.9655 9.40911L9.10345 13.7455Z" fill="#EDDBBF"/>
</svg>
